<?xml version="1.0" standalone="no"?>
<!DOCTYPE svg PUBLIC "-//W3C//DTD SVG 1.1//EN" "http://www.w3.org/Graphics/SVG/1.1/DTD/svg11.dtd" >
<svg xmlns="http://www.w3.org/2000/svg" xmlns:xlink="http://www.w3.org/1999/xlink" version="1.1">
<metadata></metadata>
<defs>
<font id="kirkuregular" horiz-adv-x="1071" >
<font-face units-per-em="2048" ascent="1657" descent="-391" />
<missing-glyph horiz-adv-x="512" />
<glyph horiz-adv-x="0" />
<glyph horiz-adv-x="0" />
<glyph unicode="&#xd;" horiz-adv-x="512" />
<glyph unicode=" "  horiz-adv-x="512" />
<glyph unicode="&#x09;" horiz-adv-x="512" />
<glyph unicode="&#xa0;" horiz-adv-x="512" />
<glyph unicode="!" horiz-adv-x="636" d="M184 123q0 55 39 95t94 40t95.5 -40t40.5 -95t-40 -94t-96 -39q-55 0 -94 39t-39 94zM197 1452h241l-51 -1036h-137z" />
<glyph unicode="&#x22;" horiz-adv-x="765" d="M82 1227q0 55 35 90t90 35q53 0 88 -35t35 -90q0 -16 -4 -37l-86 -385h-70l-84 383q-4 20 -4 39zM436 1227q0 55 35 90t90 35q53 0 88 -35t35 -90q0 -16 -4 -37l-86 -385h-70l-84 383q-4 20 -4 39z" />
<glyph unicode="#" horiz-adv-x="1511" d="M102 346v156h293l70 327h-262v156h295l73 342h172l-73 -342h291l73 342h172l-73 -342h276v-156h-309l-70 -327h279v-156h-314l-73 -346h-172l73 346h-291l-73 -346h-172l73 346h-258zM567 502h291l70 327h-291z" />
<glyph unicode="$" horiz-adv-x="1218" d="M102 379l195 61q10 -106 73.5 -186t178.5 -100v428l-51 10q-160 33 -250 129t-90 244q0 96 50 180t139 139t202 70v215h160v-217q170 -23 261 -118t122 -216l-185 -68q-10 68 -61 131.5t-137 87.5v-419l30 -7q168 -33 266.5 -137t98.5 -244q0 -94 -46 -177t-135 -140 t-214 -72v-213h-160v213q-135 15 -231.5 75.5t-149.5 147.5t-66 183zM360 973q1 -150 189 -187v390q-88 -16 -138.5 -71.5t-50.5 -131.5zM709 154q96 18 145 71.5t49 126.5q0 68 -49 121t-145 76v-395z" />
<glyph unicode="%" horiz-adv-x="1673" d="M113 1020q0 88 45 161.5t119.5 116.5t162.5 43t164 -43t121 -116.5t45 -161.5t-45 -163t-121 -118t-164 -43t-162.5 43t-119.5 117t-45 164zM276 0l955 1327h184l-950 -1327h-189zM283 1020q0 -70 45 -116t112 -46q68 0 113 46t45 116t-45 115t-113 45q-66 0 -111.5 -45 t-45.5 -115zM924 307q0 88 45 162t119.5 117t162.5 43t164 -43t121 -117t45 -162t-45 -162.5t-121 -117.5t-164 -43t-162.5 43t-119.5 116.5t-45 163.5zM1094 307q0 -69 45 -115.5t112 -46.5q68 0 113 46.5t45 115.5q0 70 -45 115t-113 45q-66 0 -111.5 -45t-45.5 -115z" />
<glyph unicode="&#x26;" horiz-adv-x="1427" d="M143 346q0 131 62.5 219t193.5 187l21 16l-27 29q-78 84 -126 157.5t-48 165.5q0 113 54.5 195t140.5 125t180 43q109 0 197 -44t138 -124t50 -187q0 -98 -56.5 -176t-148.5 -145l-74 -55l271 -281l323 360v-264l-196 -227l329 -340h-272l-184 193 q-94 -107 -192.5 -162.5t-215.5 -55.5q-131 0 -226 52.5t-144.5 137.5t-49.5 181zM350 362q0 -78 60.5 -140t154.5 -62q76 0 138.5 41t132.5 118l6 9l-295 309l-74 -55q-57 -45 -90 -97.5t-33 -122.5zM418 1133q0 -56 30.5 -104t79.5 -99l45 -49l99 73q61 45 84.5 88 t23.5 93q0 74 -52 125t-132 51q-70 0 -124 -48.5t-54 -129.5z" />
<glyph unicode="'" horiz-adv-x="411" d="M82 1227q0 55 35 90t90 35q53 0 88 -35t35 -90q0 -16 -4 -37l-86 -385h-70l-84 383q-4 20 -4 39z" />
<glyph unicode="(" horiz-adv-x="618" d="M113 649q0 580 389 977l116 -102q-164 -184 -251.5 -399.5t-87.5 -475.5t88 -475t251 -399l-116 -103q-389 397 -389 977z" />
<glyph unicode=")" horiz-adv-x="618" d="M0 -225q164 184 252 399t88 475t-88 475t-252 400l117 102q389 -397 389 -977t-389 -977z" />
<glyph unicode="*" horiz-adv-x="901" d="M72 1116l47 148l250 -88v276h161v-274l252 86l47 -148l-254 -84l168 -215l-125 -94l-169 223l-160 -221l-125 94l162 213z" />
<glyph unicode="+" horiz-adv-x="1161" d="M113 508v162h383v399h168v-399h385v-162h-385v-404h-168v404h-383z" />
<glyph unicode="," horiz-adv-x="602" d="M143 131q0 55 43 96t107 41q70 0 118 -51t48 -143q0 -127 -47 -214t-116 -132t-140 -54v107q74 16 121 80.5t49 140.5q-14 -10 -45 -10q-59 0 -98.5 38t-39.5 101z" />
<glyph unicode="-" horiz-adv-x="739" d="M92 504v168h555v-168h-555z" />
<glyph unicode="." horiz-adv-x="571" d="M143 131q0 59 41 101t101 42q59 0 101 -42t42 -101t-42 -100t-101 -41t-100.5 41t-41.5 100z" />
<glyph unicode="/" horiz-adv-x="888" d="M0 0l702 1452h187l-703 -1452h-186z" />
<glyph unicode="0" horiz-adv-x="1257" d="M102 664q0 305 119 481q141 213 408 213q266 0 407 -213q119 -176 119 -481t-119 -482q-141 -213 -407 -213t-408 213q-119 176 -119 482zM301 664q0 -308 117 -431q82 -86 211 -86t211 86q117 123 116 431q0 307 -116 430q-82 86 -211 86t-211 -86q-117 -123 -117 -430z " />
<glyph unicode="1" horiz-adv-x="722" d="M51 936v141q135 2 227.5 71t114.5 179h176v-1327h-196v936h-322z" />
<glyph unicode="2" horiz-adv-x="1083" d="M72 0q4 168 76.5 295t238.5 233l221 144q182 117 183 276q0 98 -66 166t-184 68q-125 0 -190.5 -76t-65.5 -197q0 -18 4 -59l-201 24q-2 19 -2 54q0 115 55.5 213t158.5 157.5t245 59.5q137 0 239.5 -55.5t155.5 -147.5t53 -205q0 -127 -65.5 -230.5t-184.5 -178.5 l-262 -168q-68 -43 -108.5 -87t-53.5 -100h682v-186h-929z" />
<glyph unicode="3" horiz-adv-x="1132" d="M76 385l196 45q6 -129 89 -208t206 -79q131 0 206 71t75 175q0 121 -80 184.5t-190 63.5q-59 0 -117 -21l-99 166l392 361h-635v184h901v-180l-379 -350q102 0 196.5 -46t154 -137.5t59.5 -220.5q0 -115 -57.5 -212t-166 -155.5t-258.5 -58.5q-147 0 -256.5 57.5 t-170 153.5t-66.5 207z" />
<glyph unicode="4" horiz-adv-x="1175" d="M72 299v231l569 797h277v-842h227v-186h-227v-299h-195v299h-651zM256 485h467v650z" />
<glyph unicode="5" horiz-adv-x="1122" d="M72 360l192 58q8 -123 91 -199t208 -76q121 0 203 74t82 195q0 131 -82 202.5t-205 71.5q-70 0 -134.5 -25.5t-107.5 -70.5q-80 31 -86 35l-110 43l172 659h700v-184h-567l-98 -381q43 47 115.5 72.5t154.5 25.5q131 0 233.5 -53t160 -152.5t57.5 -234.5 q0 -125 -60.5 -228.5t-172 -164t-255.5 -60.5q-137 0 -245.5 54.5t-172 144.5t-73.5 194z" />
<glyph unicode="6" horiz-adv-x="1187" d="M104 584q0 240 89.5 415t245 267t349.5 92q88 0 164 -20.5t123 -53.5l-61 -164q-41 25 -104.5 41.5t-133.5 16.5q-135 0 -237.5 -61.5t-162 -169t-67.5 -245.5q45 74 136.5 123t213.5 49q131 0 234.5 -53t162 -155.5t58.5 -243.5q0 -137 -67.5 -240.5t-180 -158 t-243.5 -54.5q-135 0 -253 64.5t-192 203t-74 347.5zM338 422q0 -84 40 -147.5t106.5 -97.5t140.5 -34q121 0 203.5 76t82.5 203q0 129 -83 204.5t-203 75.5q-121 0 -204 -75.5t-83 -204.5z" />
<glyph unicode="7" horiz-adv-x="989" d="M10 1143v184h969v-192q-174 -140 -347 -411t-214 -724h-207q27 344 148.5 598t260 409.5t138.5 135.5h-748z" />
<glyph unicode="8" horiz-adv-x="1146" d="M92 350q0 117 70.5 204t181.5 124q-94 35 -155.5 120t-61.5 191t58.5 190.5t161 131.5t226.5 47q125 0 227.5 -47t161 -131t58.5 -191q0 -104 -61.5 -190t-155.5 -121q111 -35 181.5 -123t70.5 -205q0 -106 -57.5 -193t-166 -137.5t-258.5 -50.5q-149 0 -257.5 50.5 t-166 137.5t-57.5 193zM295 367q0 -96 74.5 -160t203.5 -64t204 63.5t75 160.5q0 98 -75 162.5t-204 64.5t-203.5 -64.5t-74.5 -162.5zM328 979q0 -96 69.5 -155.5t175.5 -61.5q107 2 176.5 61.5t69.5 155.5q0 90 -67.5 151.5t-178.5 61.5t-178 -61.5t-67 -151.5z" />
<glyph unicode="9" horiz-adv-x="1189" d="M82 899q0 133 67.5 237.5t179 163t242.5 58.5q137 0 254 -66.5t189.5 -204t72.5 -339.5q0 -373 -166.5 -576t-496.5 -203q-78 0 -168 22.5t-139 55.5l65 166q45 -27 111.5 -45t130.5 -18q227 0 341 130t120 341q-39 -72 -128 -121t-216 -49q-119 0 -224.5 52t-170 154.5 t-64.5 241.5zM285 903q0 -129 84 -204.5t202 -75.5q76 0 141.5 33.5t105.5 98t40 148.5q0 82 -41 145.5t-106.5 98.5t-139.5 35q-76 0 -141 -34t-105 -97.5t-40 -147.5z" />
<glyph unicode=":" horiz-adv-x="593" d="M154 852q0 59 41 101t100 42t101 -42t42 -101t-42 -100t-101 -41t-100 41t-41 100zM156 131q0 59 41 101t100 42t101 -42t42 -101t-42 -100t-101 -41t-100 41t-41 100z" />
<glyph unicode=";" horiz-adv-x="608" d="M154 127q0 53 41 91t102 38q68 0 113 -48t45 -136q0 -119 -44 -202t-111 -126t-134 -51v100q70 16 115 76.5t47 134.5q-14 -10 -43 -10q-55 0 -93 36t-38 97zM156 852q0 59 41 101t100 42t101 -42t42 -101t-42 -100t-101 -41t-100 41t-41 100z" />
<glyph unicode="&#x3c;" horiz-adv-x="987" d="M72 500v174l843 422v-195l-634 -313l634 -314v-194z" />
<glyph unicode="=" horiz-adv-x="1214" d="M133 309v162h948v-162h-948zM133 709v157h948v-157h-948z" />
<glyph unicode="&#x3e;" horiz-adv-x="987" d="M72 80v194l639 314l-639 313v195l843 -422v-174z" />
<glyph unicode="?" horiz-adv-x="1044" d="M72 1063q0 100 50 197.5t151.5 160t250.5 62.5q137 0 239.5 -58.5t156 -152.5t53.5 -201q0 -215 -209 -356l-94 -64q-45 -31 -67.5 -82t-22.5 -114l2 -39h-181q-2 24 -2 71q0 102 41 181.5t129 138.5l90 61q51 35 80 88.5t29 112.5q0 98 -63.5 166t-180.5 68 q-125 0 -190.5 -78t-65.5 -185q0 -61 15 -100l-199 25q-12 43 -12 98zM356 123q0 55 39 95t94 40t95.5 -40t40.5 -95t-40 -94t-96 -39q-55 0 -94 39t-39 94z" />
<glyph unicode="@" horiz-adv-x="1691" d="M92 682q0 231 107.5 414.5t290 285t397.5 101.5q205 0 372.5 -87t264 -241t96.5 -342q0 -150 -52 -271.5t-141.5 -191t-195.5 -69.5q-76 0 -131.5 32.5t-71.5 98.5q-45 -66 -110.5 -101t-133.5 -35q-139 0 -226 96.5t-87 254.5q0 133 55.5 242.5t149.5 172t205 62.5 q72 0 134 -35t85 -100l18 108h162l-111 -514q-6 -31 -6 -57q0 -84 78 -84q55 0 106.5 54t83 144.5t31.5 190.5q0 150 -71.5 268.5t-201.5 186t-300 67.5q-178 0 -321.5 -82t-225.5 -230.5t-82 -340.5q0 -180 78 -322.5t225.5 -223.5t347.5 -81q115 0 222.5 36t197.5 108 l84 -111q-88 -82 -228 -132t-276 -50q-238 0 -424 97t-290.5 274.5t-104.5 406.5zM639 649q0 -223 174 -223q104 0 171 93t71 239q0 92 -45 142t-127 50q-72 0 -127.5 -43t-86 -112.5t-30.5 -145.5z" />
<glyph unicode="A" horiz-adv-x="1427" d="M20 0l578 1452h231l578 -1452h-217l-158 406h-643l-153 -406h-216zM461 592h500l-252 651z" />
<glyph unicode="B" horiz-adv-x="1232" d="M184 0v1452h473q136 0 235 -50t151.5 -139t52.5 -204q0 -113 -59.5 -195t-157.5 -119q121 -31 191.5 -128t70.5 -222q0 -115 -56.5 -204t-159 -140t-233.5 -51h-508zM385 176h279q122 0 197 63.5t75 168.5q0 109 -67.5 173t-196.5 64h-287v-469zM385 817h250 q119 0 188.5 64.5t69.5 167.5q0 104 -71.5 165.5t-194.5 61.5h-242v-459z" />
<glyph unicode="C" horiz-adv-x="1536" d="M92 727q0 233 102.5 404.5t268.5 261.5t350 90q246 0 415 -124t224 -337l-186 -66q-41 164 -158 253t-295 89q-137 0 -255 -65.5t-189.5 -194.5t-71.5 -311t71.5 -311t189.5 -195.5t255 -66.5q178 0 297 95t166 253l178 -66q-59 -211 -228 -339t-413 -128 q-190 0 -356 90.5t-265.5 262.5t-99.5 405z" />
<glyph unicode="D" horiz-adv-x="1474" d="M184 0v1452h508q188 0 346 -85t251 -250t93 -394t-94 -392t-252.5 -247t-347.5 -84h-504zM385 178h297q137 0 249.5 61.5t178.5 184.5t66 299q0 178 -64.5 302t-176.5 186.5t-249 62.5h-301v-1096z" />
<glyph unicode="E" horiz-adv-x="1189" d="M184 0v1452h883v-186h-682v-447h619v-188h-619v-445h682v-186h-883z" />
<glyph unicode="F" horiz-adv-x="1128" d="M184 0v1452h883v-186h-682v-467h619v-189h-619v-610h-201z" />
<glyph unicode="G" horiz-adv-x="1566" d="M92 727q0 236 102.5 407t267.5 260t349 89q233 0 406.5 -120t236.5 -319l-182 -77q-49 158 -171 244.5t-290 86.5q-135 0 -253 -64.5t-189.5 -193.5t-71.5 -313t70.5 -314t185.5 -195.5t250 -65.5q150 0 250 60t147 147t51 171h-503v181h694v-711h-162l-18 205 q-54 -96 -174.5 -166t-290.5 -70q-186 0 -348 89t-259.5 261.5t-97.5 407.5z" />
<glyph unicode="H" horiz-adv-x="1511" d="M184 0v1452h201v-621h741v621h201v-1452h-201v645h-741v-645h-201z" />
<glyph unicode="I" horiz-adv-x="573" d="M184 0v1452h205v-1452h-205z" />
<glyph unicode="J" horiz-adv-x="1093" d="M41 432v94l201 45v-137q0 -139 67.5 -208.5t182.5 -69.5q111 0 174 69.5t63 194.5v1032h201v-1018q0 -127 -53.5 -233.5t-152.5 -169t-230 -62.5q-211 0 -332 126t-121 337z" />
<glyph unicode="K" horiz-adv-x="1368" d="M184 0v1452h201v-747l680 747h264l-604 -647l612 -805h-254l-491 659l-207 -221v-438h-201z" />
<glyph unicode="L" horiz-adv-x="1122" d="M184 0v1452h201v-1264h686v-188h-887z" />
<glyph unicode="M" horiz-adv-x="1937" d="M184 0v1452h273l512 -1182l516 1182h268v-1452h-199v1130l-495 -1130h-185l-491 1130v-1130h-199z" />
<glyph unicode="N" horiz-adv-x="1562" d="M184 0v1452h269l725 -1114v1114h200v-1452h-209l-784 1184v-1184h-201z" />
<glyph unicode="O" horiz-adv-x="1642" d="M92 727q0 234 103.5 405t271.5 261t354 90t354 -90t271.5 -261t103.5 -405q0 -233 -103.5 -405t-271 -262.5t-354.5 -90.5q-186 0 -354 90.5t-271.5 262.5t-103.5 405zM297 727q0 -182 72.5 -311t192.5 -195.5t259 -66.5t259 66.5t193 195.5t73 311t-73 311t-192.5 194.5 t-259.5 65.5q-139 0 -259 -65.5t-192.5 -194.5t-72.5 -311z" />
<glyph unicode="P" horiz-adv-x="1222" d="M184 0v1452h529q131 0 233.5 -56.5t158.5 -154.5t56 -219q0 -123 -56 -220t-158.5 -152.5t-233.5 -55.5h-328v-594h-201zM385 774h291q129 0 204.5 66.5t75.5 179.5q0 115 -75.5 183.5t-204.5 68.5h-291v-498z" />
<glyph unicode="Q" horiz-adv-x="1642" d="M92 727q0 234 103.5 405t271.5 261t354 90t354 -90t271.5 -261t103.5 -405q0 -166 -54 -301t-150 -236l170 -190l-138 -121l-176 195q-172 -104 -381 -105q-186 0 -354 90.5t-271.5 262.5t-103.5 405zM297 727q0 -182 72.5 -311t192.5 -195.5t259 -66.5t254 63l-252 283 l140 121l254 -287q129 156 129 393q0 182 -73 311t-192.5 194.5t-259.5 65.5q-139 0 -259 -65.5t-192.5 -194.5t-72.5 -311z" />
<glyph unicode="R" horiz-adv-x="1267" d="M184 0v1452h547q133 0 234.5 -57.5t156 -155.5t54.5 -219q0 -158 -94.5 -269.5t-258.5 -142.5l346 -608h-233l-332 594h-217v-594h-203zM387 774h307q123 0 199 66.5t76 179.5q0 115 -76 183.5t-199 68.5h-307v-498z" />
<glyph unicode="S" horiz-adv-x="1214" d="M78 401l192 62q12 -131 102.5 -221t245.5 -90q143 0 221.5 65.5t78.5 165.5q0 82 -55.5 142.5t-162.5 82.5l-206 45q-162 35 -258.5 137.5t-96.5 260.5q0 113 64.5 212t174 159.5t240.5 60.5q223 0 342 -108.5t150 -252.5l-180 -63q-15 94 -92.5 171t-214.5 77 q-121 0 -201 -70t-80 -172q0 -80 48 -135.5t138 -75.5l217 -47q180 -39 278.5 -146.5t98.5 -261.5q0 -115 -61.5 -213t-176 -157.5t-263.5 -59.5q-166 0 -284 62.5t-181.5 161t-77.5 208.5z" />
<glyph unicode="T" horiz-adv-x="1212" d="M20 1266v186h1172v-186h-485v-1266h-201v1266h-486z" />
<glyph unicode="U" horiz-adv-x="1372" d="M164 496v956h198v-950q0 -166 85 -256t239 -90t238 90t84 256v950h200v-956q0 -166 -67.5 -285t-186 -180.5t-268.5 -61.5q-149 0 -268 61.5t-186.5 180.5t-67.5 285z" />
<glyph unicode="V" horiz-adv-x="1345" d="M20 1452h213l439 -1194l442 1194h211l-559 -1452h-199z" />
<glyph unicode="W" horiz-adv-x="2056" d="M31 1452h207l319 -1137l365 1137h211l372 -1149l314 1149h206l-413 -1452h-207l-379 1178l-375 -1178h-200z" />
<glyph unicode="X" horiz-adv-x="1263" d="M20 0l496 727l-491 725h241l367 -569l373 569h237l-493 -725l487 -727h-240l-366 567l-375 -567h-236z" />
<glyph unicode="Y" horiz-adv-x="1265" d="M20 1452h242l377 -647l377 647h229l-512 -831v-621h-201v621z" />
<glyph unicode="Z" horiz-adv-x="1294" d="M92 0v201l866 1065h-845v186h1089v-195l-870 -1069h880v-188h-1120z" />
<glyph unicode="[" horiz-adv-x="589" d="M184 -303v1911h396v-156h-228v-1602h228v-153h-396z" />
<glyph unicode="\" horiz-adv-x="888" d="M0 1452h190l699 -1452h-191z" />
<glyph unicode="]" horiz-adv-x="589" d="M10 -150h228v1602h-228v156h396v-1911h-396v153z" />
<glyph unicode="^" horiz-adv-x="1067" d="M51 725l398 729h169l398 -729h-203l-278 528l-281 -528h-203z" />
<glyph unicode="_" horiz-adv-x="1110" d="M31 0h1048v-162h-1048v162z" />
<glyph unicode="`" horiz-adv-x="557" d="M70 1411h241l176 -299h-159z" />
<glyph unicode="a" d="M102 264q0 127 82 204t217 95l267 39q75 10 75 72q0 80 -53 129t-160 49q-98 0 -155.5 -54.5t-67.5 -144.5l-184 43q10 92 65.5 165t143.5 114t194 41q209 0 309.5 -101.5t100.5 -259.5v-493q0 -88 12 -162h-188q-10 61 -10 133q-41 -66 -120 -115t-198 -49 q-96 0 -172 41t-117 108.5t-41 145.5zM299 274q0 -57 44 -100t116 -43q129 0 206.5 69.5t77.5 221.5v45l-301 -45q-66 -10 -104.5 -47t-38.5 -101z" />
<glyph unicode="b" horiz-adv-x="1214" d="M164 0v1483h190v-637q39 72 124 120t202 48q145 0 246.5 -67.5t154 -185.5t52.5 -263q0 -147 -54.5 -267t-158 -189t-246.5 -69q-109 0 -191 45t-129 125v-143h-190zM352 498q0 -158 82 -255.5t211 -97.5q131 0 211 96.5t80 256.5q0 159 -79 252.5t-212 93.5 q-129 0 -211 -94.5t-82 -251.5z" />
<glyph unicode="c" horiz-adv-x="1085" d="M82 494q0 152 64.5 270.5t178 185t253.5 66.5q180 0 291.5 -92.5t146.5 -221.5l-174 -73q-23 86 -86.5 147.5t-177.5 61.5q-80 0 -149 -39t-109.5 -117t-40.5 -188q0 -109 40.5 -188t109.5 -119t151 -40q123 0 187 61.5t87 141.5l170 -74q-41 -123 -154.5 -215 t-289.5 -92q-141 0 -255 68.5t-178.5 188.5t-64.5 268z" />
<glyph unicode="d" horiz-adv-x="1204" d="M82 496q0 139 59.5 257.5t166 188.5t241.5 70q121 0 196.5 -48.5t104.5 -117.5v637h190v-1301q0 -100 11 -182h-187q-10 57 -10 133v17q-39 -76 -118 -126.5t-187 -50.5q-141 0 -246.5 69t-163 187.5t-57.5 266.5zM279 496q0 -156 76.5 -254.5t211.5 -98.5 q129 0 207 100.5t78 256.5q0 154 -76 248t-207 94t-210.5 -96.5t-79.5 -249.5z" />
<glyph unicode="e" horiz-adv-x="1110" d="M84 496q0 150 65.5 268.5t173 185t232.5 66.5q223 0 348 -140.5t125 -375.5q0 -37 -4 -62h-741q2 -131 87 -215t210 -84q211 0 276 199l166 -57q-43 -138 -160 -225t-282 -87q-133 0 -247 63.5t-181.5 182.5t-67.5 281zM289 594h538q-4 111 -73.5 181.5t-196.5 70.5 q-115 0 -188.5 -75t-79.5 -177z" />
<glyph unicode="f" horiz-adv-x="702" d="M41 811v174h182v166q0 158 92.5 248t231.5 90q43 0 74.5 -7t40.5 -14v-172q-31 12 -84 13q-63 0 -109.5 -38t-46.5 -130v-156h237v-174h-237v-811h-199v811h-182z" />
<glyph unicode="g" horiz-adv-x="1183" d="M92 -53l187 43q10 -105 83.5 -173.5t184.5 -68.5q154 0 227.5 79t73.5 241v141q-37 -72 -116 -117t-185 -45q-129 0 -232.5 61.5t-162 170t-58.5 245.5q0 133 57.5 243t160 173.5t235.5 63.5q113 0 189.5 -40t113.5 -116v137h190v-911q0 -211 -117.5 -352.5 t-375.5 -141.5q-121 0 -220.5 47t-161 131t-73.5 189zM291 524q0 -145 76.5 -230t207.5 -85q125 0 203 87t78 228t-78 228.5t-203 87.5q-127 0 -205.5 -86t-78.5 -230z" />
<glyph unicode="h" horiz-adv-x="1150" d="M164 0v1483h192v-613q51 74 130 109t169 35q170 0 261.5 -108.5t91.5 -280.5v-625h-193v592q0 113 -54 180.5t-175 67.5q-106 0 -166 -73t-64 -187v-580h-192z" />
<glyph unicode="i" horiz-adv-x="518" d="M121 1358q0 57 40 98t97 41q59 0 99 -40t40 -99q0 -57 -41 -97t-98 -40t-97 39.5t-40 97.5zM164 0v985h190v-985h-190z" />
<glyph unicode="j" horiz-adv-x="520" d="M-31 -244q31 -6 62 -6q72 0 102.5 36t30.5 108v1091h192v-1100q0 -135 -73.5 -220t-198.5 -85q-72 0 -115 14v162zM121 1362q0 57 40 98t97 41q59 0 99 -40t40 -99q0 -57 -41 -97t-98 -40t-97 40t-40 97z" />
<glyph unicode="k" horiz-adv-x="1075" d="M164 0v1483h190v-934l426 436h267l-420 -416l428 -569h-242l-321 434l-138 -137v-297h-190z" />
<glyph unicode="l" horiz-adv-x="520" d="M164 0v1483h192v-1483h-192z" />
<glyph unicode="m" horiz-adv-x="1755" d="M164 0v985h184v-131q45 78 127 119t172 41q96 0 176 -47t119 -140q102 186 330 187q90 0 168 -41t125 -126t47 -208v-639h-191v618q0 102 -52 164t-157 62q-100 0 -163.5 -71t-63.5 -177v-596h-192v618q0 102 -52.5 164t-156.5 62q-102 0 -166 -69.5t-64 -180.5v-594 h-190z" />
<glyph unicode="n" horiz-adv-x="1150" d="M164 0v985h188v-141q51 88 131 129t172 41q170 0 261.5 -108.5t91.5 -280.5v-625h-193v592q0 113 -54 180.5t-175 67.5q-109 0 -169.5 -77t-60.5 -194v-569h-192z" />
<glyph unicode="o" horiz-adv-x="1171" d="M82 494q0 147 64.5 267t179 187.5t260.5 67.5q145 0 260 -67.5t179.5 -187.5t64.5 -267q0 -150 -64.5 -270t-179.5 -187.5t-260 -67.5t-260 67.5t-179.5 187.5t-64.5 270zM279 494q0 -111 41.5 -191t111.5 -121t154 -41t153.5 41t111.5 121t42 191t-42 189.5 t-111.5 119.5t-153.5 41t-154 -41t-111.5 -120t-41.5 -189z" />
<glyph unicode="p" horiz-adv-x="1214" d="M164 -389v1374h186v-154q43 78 129 127.5t201 49.5q143 0 245.5 -68t155 -184.5t52.5 -261.5q0 -147 -55.5 -266t-159 -187t-244.5 -68q-109 0 -193 45t-127 115v-522h-190zM352 494q0 -154 81 -251.5t212 -97.5t211 97.5t80 251.5q0 149 -79 246.5t-212 97.5 q-131 0 -212 -97.5t-81 -246.5z" />
<glyph unicode="q" horiz-adv-x="1189" d="M82 496q0 141 56.5 257.5t162 186.5t244.5 70q119 0 199.5 -51.5t115.5 -124.5v151h187v-1374h-191v528q-39 -76 -120 -121t-187 -45q-137 0 -243.5 70t-165 189.5t-58.5 263.5zM279 496q0 -154 78.5 -253.5t209.5 -99.5q129 0 210 99.5t81 253.5t-80 249t-211 95 q-133 0 -210.5 -95.5t-77.5 -248.5z" />
<glyph unicode="r" horiz-adv-x="751" d="M164 0v985h188v-172q49 104 128 146t167 42q33 0 64 -6v-204q-43 6 -84 6q-127 0 -199 -74t-72 -229v-494h-192z" />
<glyph unicode="s" horiz-adv-x="925" d="M72 256l174 61q10 -79 69.5 -131.5t159.5 -52.5q78 0 123 38t45 93q0 47 -32.5 80t-94.5 47l-168 37q-115 25 -180.5 98.5t-65.5 178.5q0 82 47.5 153.5t128 114.5t175.5 43q178 0 265 -84t109 -180l-170 -64q-10 59 -56 111.5t-148 52.5q-72 0 -118 -39t-46 -92 q0 -45 28.5 -76t83.5 -43l160 -35q131 -29 202 -105.5t71 -187.5q0 -74 -41 -144.5t-123 -115.5t-197 -45q-125 0 -213 45t-133 112t-55 130z" />
<glyph unicode="t" horiz-adv-x="727" d="M41 811v174h53q76 0 114 42t38 110v159h176v-311h213v-174h-213v-512q0 -70 31.5 -102.5t105.5 -32.5q43 0 76 8v-164q-49 -18 -131 -18q-127 0 -201 73.5t-74 206.5v541h-188z" />
<glyph unicode="u" horiz-adv-x="1159" d="M154 365v620h192v-592q0 -111 54.5 -182.5t168.5 -71.5q115 0 174.5 68.5t59.5 183.5v594h192v-803q0 -94 11 -182h-185q-8 45 -8 119q-39 -74 -119 -112t-172 -38q-113 0 -195.5 51.5t-127.5 141.5t-45 203z" />
<glyph unicode="v" horiz-adv-x="1028" d="M20 985h218l280 -760l283 760h207l-394 -985h-194z" />
<glyph unicode="w" horiz-adv-x="1624" d="M31 985h211l221 -741l256 741h199l256 -741l217 741h202l-319 -985h-199l-262 750l-256 -750h-203z" />
<glyph unicode="x" horiz-adv-x="1005" d="M20 0l367 502l-354 483h233l242 -346l237 346h228l-350 -483q12 -16 182 -250l180 -252h-231l-254 362l-250 -362h-230z" />
<glyph unicode="y" d="M20 985h222l307 -680l295 680h207l-641 -1397h-211l245 521z" />
<glyph unicode="z" horiz-adv-x="954" d="M82 0v168l541 643h-533v174h772v-168l-540 -643h550v-174h-790z" />
<glyph unicode="{" horiz-adv-x="722" d="M92 563v176q98 0 161.5 50.5t63.5 156.5v281q0 188 94.5 284.5t274.5 96.5h27v-154h-27q-111 0 -156 -50t-45 -165v-336q0 -102 -56 -167.5t-157 -84.5q100 -18 156.5 -83.5t56.5 -168.5v-333q0 -115 45 -165.5t156 -50.5h27v-153h-27q-180 0 -274.5 96t-94.5 285v278 q0 106 -63.5 156.5t-161.5 50.5z" />
<glyph unicode="|" horiz-adv-x="536" d="M184 -303v1911h168v-1911h-168z" />
<glyph unicode="}" horiz-adv-x="722" d="M10 -150h27q111 0 156 50.5t45 165.5v333q0 102 56 168t157 84q-100 18 -156.5 84t-56.5 168v336q0 115 -45.5 165t-155.5 50h-27v154h27q180 0 274.5 -96.5t94.5 -284.5v-281q0 -106 63 -156.5t162 -50.5v-176q-99 0 -162 -50t-63 -157v-278q0 -188 -94.5 -284.5 t-274.5 -96.5h-27v153z" />
<glyph unicode="~" horiz-adv-x="1167" d="M72 549q57 94 137 144t174 50q100 0 195 -53l94 -51q57 -33 116 -33q57 0 107.5 30t83.5 83l117 -94q-57 -92 -136 -141.5t-172 -49.5q-96 0 -198 55l-94 52q-60 30 -111 30q-111 0 -197 -116z" />
<glyph unicode="&#xa1;" horiz-adv-x="567" d="M150 881q0 55 38.5 95t94.5 40q55 0 95 -40t40 -95t-40 -94t-95 -39t-94 38.5t-39 94.5zM162 -444l53 1034h137l51 -1034h-241z" />
<glyph unicode="&#xa2;" horiz-adv-x="1110" d="M102 672q0 186 107.5 316t279.5 161v180h156v-176q145 -16 234.5 -97t119.5 -190l-165 -67q-18 66 -64.5 118t-124.5 68v-629q84 16 132 69.5t67 113.5l164 -68q-35 -104 -128.5 -185t-234.5 -98v-188h-156v193q-112 20 -200 87.5t-137.5 169t-49.5 222.5zM293 672 q0 -119 54 -199t142 -108v612q-88 -29 -142 -107.5t-54 -197.5z" />
<glyph unicode="&#xa3;" horiz-adv-x="1214" d="M133 0v195q102 43 163.5 121.5t61.5 164.5q0 45 -8 78h-205v176h144q-29 68 -45.5 122t-16.5 120q0 109 53.5 196t146.5 136t206 49q215 0 314.5 -108.5t107.5 -256.5l-201 -35q-2 111 -60.5 167.5t-156.5 56.5q-86 0 -147.5 -54.5t-61.5 -150.5q0 -57 16.5 -110.5 t51.5 -131.5h397v-176h-344q4 -37 4 -55q0 -106 -51 -192.5t-144 -133.5h416q98 0 147.5 62.5t49.5 154.5l192 -28q0 -162 -91 -264.5t-249 -102.5h-690z" />
<glyph unicode="&#xa4;" horiz-adv-x="1191" d="M90 92l150 156q-72 111 -72 241q0 135 76 248l-154 158l123 121l154 -160q111 72 237 72q123 0 227 -64l148 152l123 -121l-144 -150q84 -117 84 -256q0 -70 -21.5 -135t-59.5 -116l141 -146l-121 -121l-143 148q-106 -68 -234 -68q-131 0 -244 76l-149 -156zM338 489 q0 -118 77 -194t189 -76q113 0 187.5 76t74.5 194q0 117 -74.5 193t-187.5 76t-189.5 -76t-76.5 -193z" />
<glyph unicode="&#xa5;" horiz-adv-x="1191" d="M51 1327h234l321 -534l305 534h230l-334 -553h244v-145h-344v-164h344v-148h-344v-317h-199v317h-346v148h346v164h-346v145h239z" />
<glyph unicode="&#xa6;" horiz-adv-x="536" d="M184 -303v817h168v-817h-168zM184 791v817h168v-817h-168z" />
<glyph unicode="&#xa7;" horiz-adv-x="1173" d="M174 1108q0 111 57.5 197t153.5 132t209 46q127 0 218 -50.5t138 -136.5t47 -192l-184 -37q0 117 -57.5 185.5t-165.5 68.5q-96 0 -157.5 -53.5t-61.5 -141.5q0 -55 31.5 -100t91.5 -76l211 -110q139 -74 212.5 -151t73.5 -200q0 -86 -53 -156.5t-119 -99.5 q84 -53 132 -133t48 -163q0 -111 -57 -197t-153.5 -133t-208.5 -47q-193 0 -296.5 103.5t-107.5 277.5l182 36q0 -117 57.5 -186.5t168.5 -69.5q98 0 157.5 51.5t59.5 143.5q0 55 -32 101t-89 77l-213 111q-137 72 -211 148.5t-74 201.5q0 88 54.5 158.5t119.5 95.5 q-86 53 -134 133t-48 166zM369 586q0 -57 30.5 -100.5t100.5 -79.5l205 -111q37 16 67.5 62t30.5 102q0 57 -31 100t-100 80l-205 111q-39 -17 -68.5 -64t-29.5 -100z" />
<glyph unicode="&#xa8;" horiz-adv-x="776" d="M78 1272q0 49 33.5 84t83.5 35q51 0 85.5 -35t34.5 -84q0 -51 -34.5 -85t-85.5 -34q-49 0 -83 34t-34 85zM461 1272q0 49 33.5 84t85.5 35q49 0 83.5 -35t34.5 -84q0 -51 -34.5 -85t-83.5 -34q-51 0 -85 34t-34 85z" />
<glyph unicode="&#xa9;" horiz-adv-x="1681" d="M92 727q0 205 100.5 378t271.5 275.5t374 102.5q205 0 376.5 -102.5t273 -275.5t101.5 -378t-101.5 -379t-273.5 -276.5t-376 -102.5q-203 0 -374 102.5t-271.5 276.5t-100.5 379zM252 727q0 -170 78 -309t212 -219t296 -80t296 80t211.5 219t77.5 309t-77.5 308.5 t-212 218t-295.5 79.5q-162 0 -296 -79.5t-212 -218t-78 -308.5zM438 731q0 123 53.5 220.5t144.5 151.5t206 54q147 0 238 -75.5t120 -180.5l-143 -59q-16 70 -68.5 120t-146.5 50q-103 0 -173.5 -74t-70.5 -207t70.5 -207.5t175.5 -74.5q100 0 152.5 50t70.5 115l139 -61 q-35 -100 -127 -175t-235 -75q-115 0 -208 56.5t-145.5 153.5t-52.5 218z" />
<glyph unicode="&#xaa;" horiz-adv-x="876" d="M135 821q0 88 59.5 143.5t151.5 67.5l180 25q53 8 54 51q0 49 -35 82t-105 33q-66 0 -104.5 -37t-44.5 -96l-141 32q10 96 88.5 162t199.5 66q150 0 221.5 -73t71.5 -185v-347q0 -35 3 -66.5t5 -45.5h-145q-8 33 -8 90q-27 -45 -82 -78t-133 -33q-106 0 -171 61.5 t-65 147.5zM289 829q0 -39 28.5 -66.5t77.5 -27.5q84 0 134.5 45t50.5 146v30l-195 -30q-43 -6 -69.5 -30t-26.5 -67z" />
<glyph unicode="&#xab;" horiz-adv-x="964" d="M61 594l273 391h190l-268 -391l268 -391h-190zM461 594l272 391h191l-269 -391l269 -391h-191z" />
<glyph unicode="&#xac;" horiz-adv-x="1173" d="M92 705v167h948v-567h-172v400h-776z" />
<glyph unicode="&#xad;" horiz-adv-x="739" d="M92 504v168h555v-168h-555z" />
<glyph unicode="&#xae;" horiz-adv-x="1681" d="M92 727q0 205 100.5 378t271.5 275.5t374 102.5q205 0 376.5 -102.5t273 -275.5t101.5 -378t-101.5 -379t-273.5 -276.5t-376 -102.5q-203 0 -374 102.5t-271.5 276.5t-100.5 379zM252 727q0 -170 78 -309t212 -219t296 -80t296 80t211.5 219t77.5 309t-77.5 308.5 t-212 218t-295.5 79.5q-162 0 -296 -79.5t-212 -218t-78 -308.5zM588 322v823h284q119 0 199 -75t80 -183q0 -86 -50 -151.5t-130 -92.5l184 -321h-178l-172 307h-62v-307h-155zM743 764h107q70 0 106.5 31.5t36.5 89.5q0 59 -36.5 92t-106.5 33h-107v-246z" />
<glyph unicode="&#xaf;" horiz-adv-x="702" d="M72 1182v166h559v-166h-559z" />
<glyph unicode="&#xb0;" horiz-adv-x="759" d="M51 1028q0 88 45 162t120 117t163 43t163.5 -43t121 -117t45.5 -162t-45.5 -162.5t-121 -117.5t-163.5 -43t-163 43t-120 116.5t-45 163.5zM221 1028q0 -70 45 -116t113 -46t113 46t45 116t-45.5 115t-112.5 45q-66 0 -112 -45t-46 -115z" />
<glyph unicode="&#xb1;" horiz-adv-x="1161" d="M133 104v162h895v-162h-895zM133 633v158h363v278h168v-278h364v-158h-364v-275h-168v275h-363z" />
<glyph unicode="&#xb2;" horiz-adv-x="796" d="M125 705v26q0 190 174 297l123 76q88 53 88 129q0 43 -29.5 72.5t-81.5 29.5q-53 0 -84.5 -32.5t-31.5 -85.5q0 -25 6 -54h-152q-6 31 -6 64q0 100 74 169.5t196 69.5q121 0 195 -68.5t74 -166.5q0 -135 -144 -225l-147 -93q-55 -37 -64 -75h359v-133h-549z" />
<glyph unicode="&#xb3;" horiz-adv-x="843" d="M123 899l137 55q10 -59 54 -95t108 -36q61 0 100 32t39 81q0 59 -41 87t-98 28q-29 0 -57 -9l-60 115l195 162h-350v133h555v-129l-205 -164q94 -8 157.5 -66.5t63.5 -156.5q0 -68 -38 -124t-105.5 -90t-153.5 -34q-125 0 -203 61.5t-98 149.5z" />
<glyph unicode="&#xb4;" horiz-adv-x="561" d="M72 1112l178 299h242l-259 -299h-161z" />
<glyph unicode="&#xb5;" horiz-adv-x="1169" d="M164 -389v1374h192v-592q0 -111 54.5 -182.5t169.5 -71.5t174 68.5t59 183.5v594h193v-803q0 -115 10 -182h-185q-8 45 -8 119q-39 -74 -118.5 -112t-172.5 -38q-94 0 -176 41v-399h-192z" />
<glyph unicode="&#xb6;" horiz-adv-x="1282" d="M72 1047q0 127 62.5 219t167 139t233.5 47h696v-166h-199v-1698h-170v1698h-190v-1698h-170v1069h-33q-106 0 -197.5 51.5t-145.5 141.5t-54 197z" />
<glyph unicode="&#xb7;" horiz-adv-x="571" d="M143 582q0 59 41 101t101 42q59 0 101 -42t42 -101t-42 -100.5t-101 -41.5t-100.5 41t-41.5 101z" />
<glyph unicode="&#xb8;" horiz-adv-x="602" d="M66 -352l75 92q25 -27 63 -48.5t85 -21.5q41 0 68.5 17.5t27.5 50.5q0 29 -24.5 47t-65.5 18q-33 0 -59 -10l-68 80l98 156h146l-80 -123q88 0 143 -46t55 -122q0 -78 -61 -131t-178 -53q-72 0 -132.5 26.5t-92.5 67.5z" />
<glyph unicode="&#xb9;" horiz-adv-x="600" d="M102 1206v107q74 2 126.5 42t62.5 97h145v-747h-157v501h-177z" />
<glyph unicode="&#xba;" horiz-adv-x="991" d="M137 981q0 104 46 188t128 132.5t185 48.5q102 0 184 -48.5t128 -132.5t46 -188t-46 -188t-128 -132.5t-184 -48.5t-184.5 48.5t-128.5 132.5t-46 188zM291 981q0 -109 59.5 -170t145.5 -61q84 0 143 61t59 170t-58 169t-144 60t-145.5 -60t-59.5 -169z" />
<glyph unicode="&#xbb;" horiz-adv-x="964" d="M41 203l268 391l-268 391h190l273 -391l-273 -391h-190zM440 203l269 391l-269 391h191l272 -391l-272 -391h-191z" />
<glyph unicode="&#xbc;" horiz-adv-x="1597" d="M113 1081v107q74 2 126 42t62 97h145v-747h-157v501h-176zM166 0l954 1327h185l-951 -1327h-188zM827 147v150l363 451h174v-467h131v-134h-131v-147h-158v147h-379zM979 281h227v284z" />
<glyph unicode="&#xbd;" horiz-adv-x="1595" d="M113 1081v107q74 2 126 42t62 97h145v-747h-157v501h-176zM164 0l954 1327h185l-951 -1327h-188zM948 0v27q0 190 174 297l123 75q88 53 88 129q0 43 -29.5 73t-80.5 30q-53 0 -85 -33t-32 -86q0 -25 6 -53h-151q-7 30 -7 63q0 100 74 170t197 70q121 0 194.5 -68.5 t73.5 -167.5q0 -135 -143 -225l-148 -92q-55 -37 -63 -76h358v-133h-549z" />
<glyph unicode="&#xbe;" horiz-adv-x="1740" d="M113 774l137 55q10 -59 54 -95t108 -36q61 0 100 32t39 81q0 59 -41 87t-98 28q-29 0 -58 -8l-59 114l194 162h-350v133h555v-129l-205 -164q94 -8 158 -66.5t64 -156.5q0 -68 -38 -124t-105.5 -90t-153.5 -34q-125 0 -203 61.5t-98 149.5zM346 0l954 1327h185 l-950 -1327h-189zM971 147v150l362 451h174v-467h131v-134h-131v-147h-157v147h-379zM1122 281h228v284z" />
<glyph unicode="&#xbf;" horiz-adv-x="1044" d="M41 -63q0 215 209 356l94 63q45 31 67.5 82t22.5 115q0 25 -2 39h180q2 -25 2 -72q0 -102 -41 -181t-129 -138l-90 -62q-51 -35 -79.5 -88t-28.5 -112q0 -98 63.5 -166t179.5 -68q125 0 190.5 78t65.5 184q0 61 -14 101l199 -25q12 -43 12 -98q0 -100 -50 -197.5 t-151.5 -160t-251.5 -62.5q-137 0 -239.5 58.5t-155.5 152.5t-53 201zM387 883q0 55 40 94t95 39t94 -39t39 -94q0 -56 -38.5 -95.5t-94.5 -39.5q-55 0 -95 39.5t-40 95.5z" />
<glyph unicode="&#xc0;" horiz-adv-x="1427" d="M20 0l578 1452h231l578 -1452h-217l-158 406h-643l-153 -406h-216zM334 1798h264l209 -244h-191zM461 592h500l-252 651z" />
<glyph unicode="&#xc1;" horiz-adv-x="1427" d="M20 0l578 1452h231l578 -1452h-217l-158 406h-643l-153 -406h-216zM461 592h500l-252 651zM614 1554l207 244h266l-280 -244h-193z" />
<glyph unicode="&#xc2;" horiz-adv-x="1427" d="M20 0l578 1452h231l578 -1452h-217l-158 406h-643l-153 -406h-216zM352 1554l230 244h245l240 -244h-188l-174 132l-166 -132h-187zM461 592h500l-252 651z" />
<glyph unicode="&#xc3;" horiz-adv-x="1427" d="M20 0l578 1452h231l578 -1452h-217l-158 406h-643l-153 -406h-216zM377 1550v33q0 111 55 169t143 58q72 0 150 -47l31 -18q20 -12 39.5 -20.5t38.5 -8.5q29 0 47 17.5t18 54.5v16h137v-32q0 -111 -54 -169.5t-142 -58.5q-78 0 -146 47l-30 21q-47 29 -76 28 q-72 0 -72 -90h-139zM461 592h500l-252 651z" />
<glyph unicode="&#xc4;" horiz-adv-x="1427" d="M20 0l578 1452h231l578 -1452h-217l-158 406h-643l-153 -406h-216zM291 1677q0 52 34.5 86.5t86.5 34.5q51 0 85.5 -34.5t34.5 -86.5q0 -51 -34.5 -86t-85.5 -35t-86 35t-35 86zM461 592h500l-252 651zM887 1677q0 52 34.5 86.5t86.5 34.5q51 0 85.5 -34.5t34.5 -86.5 q0 -51 -34.5 -86t-85.5 -35t-86 35t-35 86z" />
<glyph unicode="&#xc5;" horiz-adv-x="1427" d="M20 0l541 1360q-47 35 -74.5 86t-27.5 110q0 68 34.5 125.5t92 90t123.5 32.5q104 0 178 -71.5t74 -176.5q0 -57 -26 -107t-71 -85l543 -1364h-217l-158 406h-643l-153 -406h-216zM461 592h500l-252 651zM602 1556q0 -45 30 -74.5t73 -29.5q47 0 77.5 29.5t30.5 74.5 q0 43 -31.5 75t-76.5 32q-43 0 -73 -32t-30 -75z" />
<glyph unicode="&#xc6;" horiz-adv-x="2101" d="M10 0l967 1452h1001v-186h-682v-447h619v-188h-619v-445h682v-186h-882v401h-570l-258 -401h-258zM641 582h455v704z" />
<glyph unicode="&#xc7;" horiz-adv-x="1536" d="M92 727q0 233 102.5 404.5t268.5 261.5t350 90q246 0 415 -124t224 -337l-186 -66q-41 164 -158 253t-295 89q-137 0 -255 -65.5t-189.5 -194.5t-71.5 -311t71.5 -311t189.5 -195.5t255 -66.5q174 0 295 96t168 252l178 -66q-55 -190 -201.5 -315t-353.5 -148l-43 -67 q88 0 143.5 -46t55.5 -122q0 -78 -61.5 -131t-178.5 -53q-72 0 -132 26.5t-93 67.5l76 92q25 -27 62.5 -48.5t84.5 -21.5q41 0 68.5 17.5t27.5 50.5q0 29 -24.5 47t-65.5 18q-33 0 -59 -10l-68 80l62 98q-179 15 -330.5 108t-241.5 260t-90 388z" />
<glyph unicode="&#xc8;" horiz-adv-x="1189" d="M184 0v1452h883v-186h-682v-447h619v-188h-619v-445h682v-186h-883zM305 1798h264l209 -244h-190z" />
<glyph unicode="&#xc9;" horiz-adv-x="1189" d="M184 0v1452h883v-186h-682v-447h619v-188h-619v-445h682v-186h-883zM479 1554l207 244h266l-280 -244h-193z" />
<glyph unicode="&#xca;" horiz-adv-x="1189" d="M184 0v1452h883v-186h-682v-447h619v-188h-619v-445h682v-186h-883zM268 1554l230 244h245l240 -244h-188l-174 132l-166 -132h-187z" />
<glyph unicode="&#xcb;" horiz-adv-x="1189" d="M184 0v1452h883v-186h-682v-447h619v-188h-619v-445h682v-186h-883zM272 1677q0 52 35 86.5t86 34.5t86 -34.5t35 -86.5q0 -51 -35 -86t-86 -35t-86 35t-35 86zM745 1677q0 52 35 86.5t86 34.5t86 -34.5t35 -86.5q0 -51 -34.5 -86t-86.5 -35q-51 0 -86 35t-35 86z" />
<glyph unicode="&#xcc;" horiz-adv-x="573" d="M-92 1798h264l209 -244h-191zM184 0v1452h205v-1452h-205z" />
<glyph unicode="&#xcd;" horiz-adv-x="573" d="M184 0v1452h205v-1452h-205zM193 1554l206 244h267l-281 -244h-192z" />
<glyph unicode="&#xce;" horiz-adv-x="573" d="M-57 1554l229 244h246l239 -244h-188l-174 132l-166 -132h-186zM184 0v1452h205v-1452h-205z" />
<glyph unicode="&#xcf;" horiz-adv-x="573" d="M23 1677q0 47 31.5 78t76.5 31q47 0 79 -32t32 -77t-32 -77.5t-79 -32.5q-45 0 -76.5 31.5t-31.5 78.5zM184 0v1452h205v-1452h-205zM336 1677q0 45 31.5 77t78.5 32t78 -31t31 -78t-31.5 -78.5t-77.5 -31.5q-45 0 -77.5 32.5t-32.5 77.5z" />
<glyph unicode="&#xd0;" horiz-adv-x="1482" d="M37 666v168h156v618h507q188 0 346 -85t251.5 -250t93.5 -394t-94.5 -392t-253 -247t-347.5 -84h-503v666h-156zM393 178h297q137 0 250 61.5t178.5 184.5t65.5 299q0 178 -64.5 302t-176.5 186.5t-249 62.5h-301v-440h250v-168h-250v-488z" />
<glyph unicode="&#xd1;" horiz-adv-x="1562" d="M184 0v1452h269l725 -1114v1114h200v-1452h-209l-784 1184v-1184h-201zM453 1550v33q0 111 55 169t143 58q72 0 150 -47l30 -18q20 -12 40 -20.5t38 -8.5q29 0 47.5 17.5t18.5 54.5v16h137v-32q0 -111 -54 -169.5t-143 -58.5q-78 0 -145 47l-31 21q-47 29 -75 28 q-72 0 -72 -90h-139z" />
<glyph unicode="&#xd2;" horiz-adv-x="1642" d="M92 727q0 234 103.5 405t271.5 261t354 90t354 -90t271.5 -261t103.5 -405q0 -233 -103.5 -405t-271 -262.5t-354.5 -90.5q-186 0 -354 90.5t-271.5 262.5t-103.5 405zM297 727q0 -182 72.5 -311t192.5 -195.5t259 -66.5t259 66.5t193 195.5t73 311t-73 311t-192.5 194.5 t-259.5 65.5q-139 0 -259 -65.5t-192.5 -194.5t-72.5 -311zM457 1798h264l209 -244h-191z" />
<glyph unicode="&#xd3;" horiz-adv-x="1642" d="M92 727q0 234 103.5 405t271.5 261t354 90t354 -90t271.5 -261t103.5 -405q0 -233 -103.5 -405t-271 -262.5t-354.5 -90.5q-186 0 -354 90.5t-271.5 262.5t-103.5 405zM297 727q0 -182 72.5 -311t192.5 -195.5t259 -66.5t259 66.5t193 195.5t73 311t-73 311t-192.5 194.5 t-259.5 65.5q-139 0 -259 -65.5t-192.5 -194.5t-72.5 -311zM709 1554l206 244h267l-281 -244h-192z" />
<glyph unicode="&#xd4;" horiz-adv-x="1642" d="M92 727q0 234 103.5 405t271.5 261t354 90t354 -90t271.5 -261t103.5 -405q0 -233 -103.5 -405t-271 -262.5t-354.5 -90.5q-186 0 -354 90.5t-271.5 262.5t-103.5 405zM297 727q0 -182 72.5 -311t192.5 -195.5t259 -66.5t259 66.5t193 195.5t73 311t-73 311t-192.5 194.5 t-259.5 65.5q-139 0 -259 -65.5t-192.5 -194.5t-72.5 -311zM465 1554l229 244h246l240 -244h-189l-174 132l-166 -132h-186z" />
<glyph unicode="&#xd5;" horiz-adv-x="1642" d="M92 727q0 234 103.5 405t271.5 261t354 90t354 -90t271.5 -261t103.5 -405q0 -233 -103.5 -405t-271 -262.5t-354.5 -90.5q-186 0 -354 90.5t-271.5 262.5t-103.5 405zM297 727q0 -182 72.5 -311t192.5 -195.5t259 -66.5t259 66.5t193 195.5t73 311t-73 311t-192.5 194.5 t-259.5 65.5q-139 0 -259 -65.5t-192.5 -194.5t-72.5 -311zM500 1552v33q0 111 55 169t143 58q72 0 150 -47l31 -18q20 -12 39.5 -20.5t37.5 -8.5q29 0 47.5 17.5t18.5 54.5v16h137v-32q0 -111 -54 -169.5t-142 -58.5q-78 0 -146 47l-31 21q-47 29 -75 28q-72 0 -72 -90 h-139z" />
<glyph unicode="&#xd6;" horiz-adv-x="1642" d="M92 727q0 234 103.5 405t271.5 261t354 90t354 -90t271.5 -261t103.5 -405q0 -233 -103.5 -405t-271 -262.5t-354.5 -90.5q-186 0 -354 90.5t-271.5 262.5t-103.5 405zM297 727q0 -182 72.5 -311t192.5 -195.5t259 -66.5t259 66.5t193 195.5t73 311t-73 311t-192.5 194.5 t-259.5 65.5q-139 0 -259 -65.5t-192.5 -194.5t-72.5 -311zM383 1677q0 52 35 86.5t86 34.5t86 -34.5t35 -86.5q0 -51 -35 -86t-86 -35t-86 35t-35 86zM1020 1677q0 52 35 86.5t86 34.5t86 -34.5t35 -86.5q0 -51 -35 -86t-86 -35t-86 35t-35 86z" />
<glyph unicode="&#xd7;" horiz-adv-x="1085" d="M82 229l346 361l-344 356l117 117l342 -356l342 356l116 -115l-346 -358l349 -361l-115 -116l-348 358l-344 -356z" />
<glyph unicode="&#xd8;" horiz-adv-x="1642" d="M92 727q0 234 103.5 405t271.5 261t354 90q102 0 202.5 -29t188.5 -84l148 189l139 -107l-149 -192q94 -98 147 -233.5t53 -299.5q0 -233 -103.5 -405t-271 -262.5t-354.5 -90.5q-211 0 -387 109l-139 -182l-143 104l145 188q-96 100 -150.5 236.5t-54.5 302.5zM297 727 q0 -235 121 -385l680 879q-125 78 -277 77q-139 0 -259 -65.5t-192.5 -194.5t-72.5 -311zM549 225q119 -72 272 -71q139 0 259 66.5t193 195.5t73 311q0 223 -117 377z" />
<glyph unicode="&#xd9;" horiz-adv-x="1372" d="M164 496v956h198v-950q0 -166 85 -256t239 -90t238 90t84 256v950h200v-956q0 -166 -67.5 -285t-186 -180.5t-268.5 -61.5q-149 0 -268 61.5t-186.5 180.5t-67.5 285zM354 1798h264l209 -244h-190z" />
<glyph unicode="&#xda;" horiz-adv-x="1372" d="M164 496v956h198v-950q0 -166 85 -256t239 -90t238 90t84 256v950h200v-956q0 -166 -67.5 -285t-186 -180.5t-268.5 -61.5q-149 0 -268 61.5t-186.5 180.5t-67.5 285zM539 1554l206 244h267l-281 -244h-192z" />
<glyph unicode="&#xdb;" horiz-adv-x="1372" d="M164 496v956h198v-950q0 -166 85 -256t239 -90t238 90t84 256v950h200v-956q0 -166 -67.5 -285t-186 -180.5t-268.5 -61.5q-149 0 -268 61.5t-186.5 180.5t-67.5 285zM330 1554l229 244h246l239 -244h-188l-174 132l-166 -132h-186z" />
<glyph unicode="&#xdc;" horiz-adv-x="1372" d="M164 496v956h198v-950q0 -166 85 -256t239 -90t238 90t84 256v950h200v-956q0 -166 -67.5 -285t-186 -180.5t-268.5 -61.5q-149 0 -268 61.5t-186.5 180.5t-67.5 285zM340 1677q0 52 35 86.5t86 34.5t86 -34.5t35 -86.5q0 -51 -35 -86t-86 -35t-86 35t-35 86zM793 1677 q0 52 34.5 86.5t85.5 34.5t86 -34.5t35 -86.5q0 -51 -34.5 -86t-86.5 -35q-51 0 -85.5 35t-34.5 86z" />
<glyph unicode="&#xdd;" horiz-adv-x="1265" d="M20 1452h242l377 -647l377 647h229l-512 -831v-621h-201v621zM483 1554l207 244h266l-280 -244h-193z" />
<glyph unicode="&#xde;" horiz-adv-x="1212" d="M184 0v1452h201v-281h317q131 0 236.5 -55t164 -152.5t58.5 -218.5t-58.5 -218t-161.5 -151t-236 -54h-320v-322h-201zM385 500h295q129 0 202.5 65.5t73.5 177.5q0 117 -73.5 183.5t-202.5 66.5h-295v-493z" />
<glyph unicode="&#xdf;" horiz-adv-x="1161" d="M164 0v1010q0 145 59.5 252.5t161.5 164t229 56.5q123 0 218.5 -46t148.5 -125t53 -175q0 -109 -49 -180.5t-131 -122.5l-59 -37q-31 -18 -47.5 -41t-16.5 -54q0 -36 21.5 -54.5t72.5 -43.5l72 -35q94 -45 153.5 -122.5t59.5 -180.5q0 -72 -37 -140.5t-112.5 -112.5 t-184.5 -44q-115 0 -190.5 45t-110.5 112t-35 132l170 45q0 -63 40 -118.5t126 -55.5q68 0 106 38t38 83q0 51 -26 87t-81 62l-70 33q-96 45 -155.5 101.5t-59.5 158.5q0 137 129 221l66 43q117 74 117 174q0 78 -60.5 130.5t-165.5 52.5q-111 0 -184.5 -82t-73.5 -232v-999 h-192z" />
<glyph unicode="&#xe0;" d="M102 264q0 127 82 204t217 95l267 39q76 10 75 74q0 78 -53 127t-160 49q-98 0 -155.5 -54.5t-67.5 -144.5l-184 43q10 92 65.5 165t143.5 114t194 41q209 0 309.5 -101.5t100.5 -259.5v-493q0 -88 12 -162h-188q-10 61 -10 133q-41 -66 -120 -115t-198 -49 q-96 0 -172 41t-117 108.5t-41 145.5zM223 1411h242l176 -299h-160zM299 274q0 -57 44 -100t116 -43q129 0 206.5 69.5t77.5 221.5v45l-301 -45q-66 -10 -104.5 -47t-38.5 -101z" />
<glyph unicode="&#xe1;" d="M102 264q0 127 82 204t217 95l267 39q76 10 75 74q0 78 -53 127t-160 49q-98 0 -155.5 -54.5t-67.5 -144.5l-184 43q10 92 65.5 165t143.5 114t194 41q209 0 309.5 -101.5t100.5 -259.5v-493q0 -88 12 -162h-188q-10 61 -10 133q-41 -66 -120 -115t-198 -49 q-96 0 -172 41t-117 108.5t-41 145.5zM299 274q0 -57 44 -100t116 -43q129 0 206.5 69.5t77.5 221.5v45l-301 -45q-66 -10 -104.5 -47t-38.5 -101zM451 1112l178 299h241l-258 -299h-161z" />
<glyph unicode="&#xe2;" d="M102 264q0 127 82 204t217 95l267 39q76 10 75 74q0 78 -53 127t-160 49q-98 0 -155.5 -54.5t-67.5 -144.5l-184 43q10 92 65.5 165t143.5 114t194 41q209 0 309.5 -101.5t100.5 -259.5v-493q0 -88 12 -162h-188q-10 61 -10 133q-41 -66 -120 -115t-198 -49 q-96 0 -172 41t-117 108.5t-41 145.5zM221 1116l213 285h219l213 -285h-180l-143 166l-144 -166h-178zM299 274q0 -57 44 -100t116 -43q129 0 206.5 69.5t77.5 221.5v45l-301 -45q-66 -10 -104.5 -47t-38.5 -101z" />
<glyph unicode="&#xe3;" d="M102 264q0 127 82 204t217 95l267 39q76 10 75 74q0 78 -53 127t-160 49q-98 0 -155.5 -54.5t-67.5 -144.5l-184 43q10 92 65.5 165t143.5 114t194 41q209 0 309.5 -101.5t100.5 -259.5v-493q0 -88 12 -162h-188q-10 61 -10 133q-41 -66 -120 -115t-198 -49 q-96 0 -172 41t-117 108.5t-41 145.5zM219 1137v30q0 109 56.5 166.5t144.5 57.5q66 0 137 -45l29 -19q25 -14 40 -21.5t33 -7.5q31 0 45.5 19.5t14.5 68.5h145v-30q0 -109 -55 -166t-143 -57q-63 0 -136 45l-28 18q-47 29 -76 29q-31 0 -45 -19.5t-14 -68.5h-148zM299 274 q0 -57 44 -100t116 -43q129 0 206.5 69.5t77.5 221.5v45l-301 -45q-66 -10 -104.5 -47t-38.5 -101z" />
<glyph unicode="&#xe4;" d="M102 264q0 127 82 204t217 95l267 39q76 10 75 74q0 78 -53 127t-160 49q-98 0 -155.5 -54.5t-67.5 -144.5l-184 43q10 92 65.5 165t143.5 114t194 41q209 0 309.5 -101.5t100.5 -259.5v-493q0 -88 12 -162h-188q-10 61 -10 133q-41 -66 -120 -115t-198 -49 q-96 0 -172 41t-117 108.5t-41 145.5zM225 1272q0 49 34 84t83 35q51 0 86 -35t35 -84q0 -51 -35 -85t-86 -34q-49 0 -83 34t-34 85zM299 274q0 -57 44 -100t116 -43q129 0 206.5 69.5t77.5 221.5v45l-301 -45q-66 -10 -104.5 -47t-38.5 -101zM608 1272q0 49 34 84t85 35 q49 0 84 -35t35 -84q0 -51 -35 -85t-84 -34q-51 0 -85 34t-34 85z" />
<glyph unicode="&#xe5;" d="M102 264q0 127 82 204t217 95l267 39q76 10 75 74q0 78 -53 127t-160 49q-98 0 -155.5 -54.5t-67.5 -144.5l-184 43q10 92 65.5 165t143.5 114t194 41q209 0 309.5 -101.5t100.5 -259.5v-493q0 -88 12 -162h-188q-10 61 -10 133q-41 -66 -120 -115t-198 -49 q-96 0 -172 41t-117 108.5t-41 145.5zM299 274q0 -57 44 -100t116 -43q129 0 206.5 69.5t77.5 221.5v45l-301 -45q-66 -10 -104.5 -47t-38.5 -101zM307 1313q0 94 67.5 159.5t160.5 65.5q94 0 161.5 -65.5t67.5 -159.5q0 -92 -67.5 -157.5t-161.5 -65.5q-92 0 -160 65.5 t-68 157.5zM436 1313q0 -41 28 -70t68 -29q43 0 72 29t29 70t-29 70.5t-72 29.5q-41 0 -68.5 -29.5t-27.5 -70.5z" />
<glyph unicode="&#xe6;" horiz-adv-x="1789" d="M102 264q0 127 82 204t217 95l285 39q78 12 78 74q0 76 -59.5 127t-165.5 51q-100 0 -163 -55.5t-73 -136.5l-180 34q8 94 70.5 168t155.5 113t190 39q123 0 212 -44t138 -120q68 78 158 121t188 43q223 0 348 -140.5t125 -375.5q0 -41 -4 -62h-741q2 -129 88 -214 t209 -85q209 0 274 199l168 -57q-43 -136 -164 -224t-278 -88q-127 0 -234.5 55.5t-175.5 157.5q-51 -92 -146.5 -152.5t-248.5 -60.5q-109 0 -189 40t-122 107.5t-42 147.5zM299 270q0 -57 46 -98t124 -41q119 0 207 70.5t88 218.5v47l-322 -45q-68 -10 -105.5 -48 t-37.5 -104zM969 594h538q-4 111 -74.5 181.5t-195.5 70.5q-115 0 -188.5 -75t-79.5 -177z" />
<glyph unicode="&#xe7;" horiz-adv-x="1085" d="M82 494q0 150 65.5 268.5t178 186t252.5 67.5q180 0 291.5 -92.5t146.5 -221.5l-174 -73q-23 86 -86.5 147.5t-177.5 61.5q-80 0 -149 -40t-109.5 -119t-40.5 -185q0 -109 40.5 -187t109.5 -119t151 -41q119 0 185 62.5t89 140.5l170 -74q-37 -109 -128 -194.5 t-234 -106.5l-48 -71q88 0 143.5 -46t55.5 -122q0 -78 -60.5 -129t-179.5 -51q-74 0 -133 25.5t-92 64.5l76 92q25 -27 62.5 -48.5t84.5 -21.5q41 0 69 17.5t28 50.5q0 29 -25 47t-65 18q-33 0 -60 -10l-67 80l65 102q-125 15 -224 87.5t-154.5 185t-55.5 248.5z" />
<glyph unicode="&#xe8;" horiz-adv-x="1110" d="M84 496q0 150 65.5 268.5t173 185t232.5 66.5q223 0 348 -140.5t125 -375.5q0 -37 -4 -62h-741q2 -131 87 -215t210 -84q211 0 276 199l166 -57q-43 -138 -160 -225t-282 -87q-133 0 -247 63.5t-181.5 182.5t-67.5 281zM254 1411h242l176 -299h-160zM289 594h538 q-4 111 -73.5 181.5t-196.5 70.5q-115 0 -188.5 -75t-79.5 -177z" />
<glyph unicode="&#xe9;" horiz-adv-x="1110" d="M84 496q0 150 65.5 268.5t173 185t232.5 66.5q223 0 348 -140.5t125 -375.5q0 -37 -4 -62h-741q2 -131 87 -215t210 -84q211 0 276 199l166 -57q-43 -138 -160 -225t-282 -87q-133 0 -247 63.5t-181.5 182.5t-67.5 281zM289 594h538q-4 111 -73.5 181.5t-196.5 70.5 q-115 0 -188.5 -75t-79.5 -177zM471 1112l178 299h242l-258 -299h-162z" />
<glyph unicode="&#xea;" horiz-adv-x="1110" d="M84 496q0 150 65.5 268.5t173 185t232.5 66.5q223 0 348 -140.5t125 -375.5q0 -37 -4 -62h-741q2 -131 87 -215t210 -84q211 0 276 199l166 -57q-43 -138 -160 -225t-282 -87q-133 0 -247 63.5t-181.5 182.5t-67.5 281zM250 1116l213 285h219l213 -285h-180l-144 166 l-143 -166h-178zM289 594h538q-4 111 -73.5 181.5t-196.5 70.5q-115 0 -188.5 -75t-79.5 -177z" />
<glyph unicode="&#xeb;" horiz-adv-x="1110" d="M84 496q0 150 65.5 268.5t173 185t232.5 66.5q223 0 348 -140.5t125 -375.5q0 -37 -4 -62h-741q2 -131 87 -215t210 -84q211 0 276 199l166 -57q-43 -138 -160 -225t-282 -87q-133 0 -247 63.5t-181.5 182.5t-67.5 281zM258 1272q0 49 34 84t83 35q51 0 86 -35t35 -84 q0 -51 -35 -85t-86 -34q-49 0 -83 34t-34 85zM289 594h538q-4 111 -73.5 181.5t-196.5 70.5q-115 0 -188.5 -75t-79.5 -177zM641 1272q0 49 34 84t85 35q49 0 84 -35t35 -84q0 -51 -35 -85t-84 -34q-51 0 -85 34t-34 85z" />
<glyph unicode="&#xec;" horiz-adv-x="518" d="M-68 1411h242l176 -299h-160zM164 0v985h190v-985h-190z" />
<glyph unicode="&#xed;" horiz-adv-x="518" d="M164 0v985h190v-985h-190zM174 1112l178 299h242l-258 -299h-162z" />
<glyph unicode="&#xee;" horiz-adv-x="518" d="M-61 1116l213 285h219l213 -285h-181l-143 166l-143 -166h-178zM164 0v985h190v-985h-190z" />
<glyph unicode="&#xef;" horiz-adv-x="518" d="M6 1272q0 47 32 78.5t77 31.5q47 0 78.5 -31.5t31.5 -78.5q0 -45 -31.5 -77t-78.5 -32q-45 0 -77 32t-32 77zM164 0v985h190v-985h-190zM295 1272q0 47 31.5 78.5t76.5 31.5q47 0 79 -31.5t32 -78.5q0 -45 -31.5 -77t-79.5 -32q-45 0 -76.5 32t-31.5 77z" />
<glyph unicode="&#xf0;" horiz-adv-x="1167" d="M82 465q0 145 67.5 255.5t176 170t229.5 59.5q94 0 169 -26.5t118 -75.5q-63 170 -207 293l-268 -133l-60 129l193 96q-96 55 -230 94l60 156q76 -16 170 -56.5t186 -101.5l223 113l64 -129l-166 -82q127 -119 203.5 -291t76.5 -401q0 -160 -60 -288t-175 -202t-268 -74 q-145 0 -259 64.5t-178.5 177.5t-64.5 252zM276 465q0 -150 89.5 -236t218.5 -86t217 86t88 236q0 152 -88 236.5t-217 84.5q-84 0 -154 -37.5t-112 -110.5t-42 -173z" />
<glyph unicode="&#xf1;" horiz-adv-x="1150" d="M164 0v985h188v-141q51 88 131 129t172 41q170 0 261.5 -108.5t91.5 -280.5v-625h-193v592q0 113 -54 180.5t-175 67.5q-109 0 -169.5 -77t-60.5 -194v-569h-192zM281 1137v30q0 109 56 166.5t144 57.5q66 0 137 -45l29 -19q25 -14 40 -21.5t34 -7.5q31 0 45 19.5 t14 68.5h146v-30q0 -109 -55.5 -166t-143.5 -57q-63 0 -135 45l-29 18q-47 29 -76 29q-31 0 -45 -19.5t-14 -68.5h-147z" />
<glyph unicode="&#xf2;" horiz-adv-x="1171" d="M82 494q0 147 64.5 267t179 187.5t260.5 67.5q145 0 260 -67.5t179.5 -187.5t64.5 -267q0 -150 -64.5 -270t-179.5 -187.5t-260 -67.5t-260 67.5t-179.5 187.5t-64.5 270zM256 1411h242l176 -299h-160zM279 494q0 -111 41.5 -191t111.5 -121t154 -41t153.5 41t111.5 121 t42 191t-42 189.5t-111.5 119.5t-153.5 41t-154 -41t-111.5 -120t-41.5 -189z" />
<glyph unicode="&#xf3;" horiz-adv-x="1171" d="M82 494q0 147 64.5 267t179 187.5t260.5 67.5q145 0 260 -67.5t179.5 -187.5t64.5 -267q0 -150 -64.5 -270t-179.5 -187.5t-260 -67.5t-260 67.5t-179.5 187.5t-64.5 270zM279 494q0 -111 41.5 -191t111.5 -121t154 -41t153.5 41t111.5 121t42 191t-42 189.5 t-111.5 119.5t-153.5 41t-154 -41t-111.5 -120t-41.5 -189zM471 1112l178 299h242l-258 -299h-162z" />
<glyph unicode="&#xf4;" horiz-adv-x="1171" d="M82 494q0 147 64.5 267t179 187.5t260.5 67.5q145 0 260 -67.5t179.5 -187.5t64.5 -267q0 -150 -64.5 -270t-179.5 -187.5t-260 -67.5t-260 67.5t-179.5 187.5t-64.5 270zM264 1116l213 285h219l213 -285h-180l-143 166l-144 -166h-178zM279 494q0 -111 41.5 -191 t111.5 -121t154 -41t153.5 41t111.5 121t42 191t-42 189.5t-111.5 119.5t-153.5 41t-154 -41t-111.5 -120t-41.5 -189z" />
<glyph unicode="&#xf5;" horiz-adv-x="1171" d="M82 494q0 147 64.5 267t179 187.5t260.5 67.5q145 0 260 -67.5t179.5 -187.5t64.5 -267q0 -150 -64.5 -270t-179.5 -187.5t-260 -67.5t-260 67.5t-179.5 187.5t-64.5 270zM266 1137v30q0 109 56.5 166.5t144.5 57.5q66 0 137 -45l29 -19q25 -14 40 -21.5t34 -7.5 q31 0 45 19.5t14 68.5h145v-30q0 -109 -55 -166t-143 -57q-63 0 -135 45l-29 18q-47 29 -76 29q-31 0 -45 -19.5t-14 -68.5h-148zM279 494q0 -111 41.5 -191t111.5 -121t154 -41t153.5 41t111.5 121t42 191t-42 189.5t-111.5 119.5t-153.5 41t-154 -41t-111.5 -120 t-41.5 -189z" />
<glyph unicode="&#xf6;" horiz-adv-x="1171" d="M82 494q0 147 64.5 267t179 187.5t260.5 67.5q145 0 260 -67.5t179.5 -187.5t64.5 -267q0 -150 -64.5 -270t-179.5 -187.5t-260 -67.5t-260 67.5t-179.5 187.5t-64.5 270zM274 1272q0 49 34 84t83 35q51 0 86 -35t35 -84q0 -51 -35 -85t-86 -34q-49 0 -83 34t-34 85z M279 494q0 -111 41.5 -191t111.5 -121t154 -41t153.5 41t111.5 121t42 191t-42 189.5t-111.5 119.5t-153.5 41t-154 -41t-111.5 -120t-41.5 -189zM657 1272q0 49 34 84t85 35q49 0 84 -35t35 -84q0 -51 -35 -85t-84 -34q-51 0 -85 34t-34 85z" />
<glyph unicode="&#xf7;" horiz-adv-x="1161" d="M113 504v170h936v-170h-936zM446 225q0 54 40 92.5t94 38.5q53 0 92 -38.5t39 -92.5q0 -53 -39 -93t-92 -40t-93.5 40t-40.5 93zM446 952q0 54 40 92.5t94 38.5q53 0 92 -38.5t39 -92.5q0 -53 -39 -93t-92 -40t-93.5 40t-40.5 93z" />
<glyph unicode="&#xf8;" horiz-adv-x="1171" d="M82 494q0 147 64.5 267t179 187.5t260.5 67.5q137 0 256 -66l102 133l123 -98l-104 -135q61 -70 94 -161t33 -195q0 -150 -64.5 -270t-179.5 -187.5t-260 -67.5q-137 0 -254 64l-101 -129l-122 98l100 131q-61 70 -94 162t-33 199zM279 494q0 -115 51 -207l401 520 q-68 37 -145 37q-84 0 -154 -41t-111.5 -120t-41.5 -189zM442 176q61 -35 144 -35q84 0 153.5 41t111.5 121t42 191q0 117 -49 202z" />
<glyph unicode="&#xf9;" horiz-adv-x="1159" d="M154 365v620h192v-592q0 -111 54.5 -182.5t168.5 -71.5q115 0 174.5 68.5t59.5 183.5v594h192v-803q0 -94 11 -182h-185q-8 45 -8 119q-39 -74 -119 -112t-172 -38q-113 0 -195.5 51.5t-127.5 141.5t-45 203zM266 1411h242l176 -299h-160z" />
<glyph unicode="&#xfa;" horiz-adv-x="1159" d="M154 365v620h192v-592q0 -111 54.5 -182.5t168.5 -71.5q115 0 174.5 68.5t59.5 183.5v594h192v-803q0 -94 11 -182h-185q-8 45 -8 119q-39 -74 -119 -112t-172 -38q-113 0 -195.5 51.5t-127.5 141.5t-45 203zM446 1112l179 299h241l-258 -299h-162z" />
<glyph unicode="&#xfb;" horiz-adv-x="1159" d="M154 365v620h192v-592q0 -111 54.5 -182.5t168.5 -71.5q115 0 174.5 68.5t59.5 183.5v594h192v-803q0 -94 11 -182h-185q-8 45 -8 119q-39 -74 -119 -112t-172 -38q-113 0 -195.5 51.5t-127.5 141.5t-45 203zM252 1116l213 285h219l213 -285h-180l-144 166l-143 -166 h-178z" />
<glyph unicode="&#xfc;" horiz-adv-x="1159" d="M154 365v620h192v-592q0 -111 54.5 -182.5t168.5 -71.5q115 0 174.5 68.5t59.5 183.5v594h192v-803q0 -94 11 -182h-185q-8 45 -8 119q-39 -74 -119 -112t-172 -38q-113 0 -195.5 51.5t-127.5 141.5t-45 203zM262 1272q0 49 34 84t83 35q51 0 86 -35t35 -84 q0 -51 -35 -85t-86 -34q-49 0 -83 34t-34 85zM645 1272q0 49 34 84t85 35q49 0 84 -35t35 -84q0 -51 -35 -85t-84 -34q-51 0 -85 34t-34 85z" />
<glyph unicode="&#xfd;" d="M20 985h222l307 -680l295 680h207l-641 -1397h-211l245 521zM418 1112l178 299h242l-258 -299h-162z" />
<glyph unicode="&#xfe;" horiz-adv-x="1214" d="M164 -389v1872h192v-641q43 74 128 120t196 46q143 0 245.5 -68t155 -184.5t52.5 -261.5q0 -147 -55.5 -266t-159 -187t-244.5 -68q-109 0 -193 45t-127 115v-522h-190zM352 494q0 -154 81 -251.5t212 -97.5t211 97.5t80 251.5q0 149 -79 246.5t-212 97.5 q-131 0 -212 -97.5t-81 -246.5z" />
<glyph unicode="&#xff;" d="M20 985h222l307 -680l295 680h207l-641 -1397h-211l245 521zM225 1272q0 49 34 84t83 35q51 0 86 -35t35 -84q0 -51 -35 -85t-86 -34q-49 0 -83 34t-34 85zM608 1272q0 49 34 84t85 35q49 0 84 -35t35 -84q0 -51 -35 -85t-84 -34q-51 0 -85 34t-34 85z" />
<glyph unicode="&#x152;" horiz-adv-x="2351" d="M92 727q0 233 103.5 404.5t271.5 261.5t354 90q147 0 284.5 -56.5t240.5 -164.5v190h882v-186h-682v-447h619v-188h-619v-445h682v-186h-882v190q-103 -108 -240 -164.5t-285 -56.5q-186 0 -354 90.5t-271.5 262.5t-103.5 405zM297 727q0 -182 72.5 -311t192.5 -195.5 t259 -66.5t259 66.5t193 195.5t73 311t-73 311t-192.5 194.5t-259.5 65.5q-139 0 -259 -65.5t-192.5 -194.5t-72.5 -311z" />
<glyph unicode="&#x153;" horiz-adv-x="1918" d="M82 494q0 147 64.5 267t179 187.5t260.5 67.5q127 0 231.5 -53.5t171.5 -147.5q66 94 165 147.5t210 53.5q223 0 348 -140.5t125 -375.5q0 -37 -4 -62h-741q2 -129 88 -214t209 -85q211 0 276 199l166 -57q-43 -138 -160 -225t-282 -87q-121 0 -226.5 51.5t-173.5 147.5 q-68 -94 -172 -146.5t-231 -52.5q-145 0 -260 67.5t-179.5 187.5t-64.5 270zM279 494q0 -111 41.5 -191t111.5 -121t154 -41t153.5 41t111.5 121t42 191t-42 189.5t-111.5 119.5t-153.5 41t-154 -41t-111.5 -120t-41.5 -189zM1098 594h538q-4 111 -74.5 181.5t-195.5 70.5 q-115 0 -188.5 -75t-79.5 -177z" />
<glyph unicode="&#x178;" horiz-adv-x="1265" d="M20 1452h242l377 -647l377 647h229l-512 -831v-621h-201v621zM276 1677q0 52 35 86.5t86 34.5t86 -34.5t35 -86.5q0 -51 -34.5 -86t-86.5 -35q-51 0 -86 35t-35 86zM750 1677q0 52 34.5 86.5t85.5 34.5t86 -34.5t35 -86.5q0 -51 -34.5 -86t-86.5 -35q-51 0 -85.5 35 t-34.5 86z" />
<glyph unicode="&#x2c6;" horiz-adv-x="788" d="M72 1116l213 285h219l213 -285h-180l-144 166l-143 -166h-178z" />
<glyph unicode="&#x2dc;" horiz-adv-x="772" d="M63 1137v30q0 109 56.5 166.5t144.5 57.5q66 0 137 -45l29 -19q25 -14 40 -21.5t34 -7.5q31 0 45 19.5t14 68.5h146v-30q0 -109 -55.5 -166t-143.5 -57q-63 0 -135 45l-29 18q-47 29 -76 29q-31 0 -45 -19.5t-14 -68.5h-148z" />
<glyph unicode="&#x2000;" horiz-adv-x="906" />
<glyph unicode="&#x2001;" horiz-adv-x="1812" />
<glyph unicode="&#x2002;" horiz-adv-x="906" />
<glyph unicode="&#x2003;" horiz-adv-x="1812" />
<glyph unicode="&#x2004;" horiz-adv-x="604" />
<glyph unicode="&#x2005;" horiz-adv-x="453" />
<glyph unicode="&#x2006;" horiz-adv-x="302" />
<glyph unicode="&#x2007;" horiz-adv-x="302" />
<glyph unicode="&#x2008;" horiz-adv-x="226" />
<glyph unicode="&#x2009;" horiz-adv-x="362" />
<glyph unicode="&#x200a;" horiz-adv-x="100" />
<glyph unicode="&#x2010;" horiz-adv-x="739" d="M92 504v168h555v-168h-555z" />
<glyph unicode="&#x2011;" horiz-adv-x="739" d="M92 504v168h555v-168h-555z" />
<glyph unicode="&#x2012;" horiz-adv-x="739" d="M92 504v168h555v-168h-555z" />
<glyph unicode="&#x2013;" horiz-adv-x="1314" d="M133 504v168h1049v-168h-1049z" />
<glyph unicode="&#x2014;" horiz-adv-x="2258" d="M154 504v168h1951v-168h-1951z" />
<glyph unicode="&#x2018;" horiz-adv-x="446" d="M82 1106q0 113 42 191.5t104.5 119.5t125.5 47v-96q-66 -14 -108.5 -73.5t-44.5 -125.5q14 10 41 11q53 0 88 -34t35 -91q0 -51 -38 -87t-96 -36q-63 0 -106 45t-43 129z" />
<glyph unicode="&#x2019;" horiz-adv-x="458" d="M82 1343q0 52 40 89.5t99 37.5q66 0 111 -47t45 -133q0 -119 -43 -199.5t-108.5 -122.5t-131.5 -50v98q68 14 112 74.5t46 132.5q-14 -10 -41 -11q-55 0 -92 36t-37 95z" />
<glyph unicode="&#x201a;" horiz-adv-x="458" d="M82 125q0 51 40 89t99 38q66 0 111 -47t45 -133q0 -119 -43 -200t-108.5 -123t-131.5 -50v98q68 14 112 74.5t46 132.5q-14 -10 -41 -10q-55 0 -92 36t-37 95z" />
<glyph unicode="&#x201c;" horiz-adv-x="796" d="M82 1116q0 113 42 191.5t104.5 119.5t125.5 48v-97q-66 -14 -108.5 -73.5t-44.5 -124.5q14 10 41 10q53 0 88 -34t35 -91q0 -51 -38 -87t-96 -36q-63 0 -106 45t-43 129zM432 1116q0 113 42 191.5t104.5 119.5t126.5 48v-97q-66 -14 -109 -73.5t-45 -124.5q16 10 41 10 q53 0 88 -34t35 -91q0 -51 -38 -87t-95 -36q-63 0 -106.5 45t-43.5 129z" />
<glyph unicode="&#x201d;" horiz-adv-x="796" d="M82 1341q0 52 38 87.5t95 35.5q63 0 106.5 -45t43.5 -129q0 -113 -42 -190.5t-104.5 -118.5t-126.5 -49v96q66 14 109 72.5t45 126.5q-14 -10 -41 -10q-53 0 -88 33.5t-35 90.5zM432 1341q0 52 38 87.5t95 35.5q63 0 106.5 -45t43.5 -129q0 -113 -42 -190.5 t-104.5 -118.5t-126.5 -49v96q66 14 109 72.5t45 126.5q-14 -10 -41 -10q-53 0 -88 33.5t-35 90.5z" />
<glyph unicode="&#x201e;" horiz-adv-x="796" d="M82 119q0 51 38 87t95 36q63 0 106.5 -45t43.5 -129q0 -113 -42 -191t-104.5 -119t-126.5 -49v96q66 14 109 73t45 126q-14 -10 -41 -10q-53 0 -88 33.5t-35 91.5zM432 119q0 51 38 87t95 36q63 0 106.5 -45t43.5 -129q0 -113 -42 -191t-104.5 -119t-126.5 -49v96 q66 14 109 73t45 126q-14 -10 -41 -10q-53 0 -88 33.5t-35 91.5z" />
<glyph unicode="&#x2022;" horiz-adv-x="1134" d="M143 592q0 117 57.5 214t155 154.5t211.5 57.5q115 0 212.5 -57.5t154.5 -154.5t57 -214q0 -115 -57 -212t-154.5 -154.5t-212.5 -57.5t-212 57.5t-154.5 154.5t-57.5 212z" />
<glyph unicode="&#x2026;" horiz-adv-x="1908" d="M184 121q0 55 39 94t94 39t93.5 -39t38.5 -94t-38 -93t-94 -38q-55 0 -94 38t-39 93zM821 121q0 55 39 94t94 39t93 -39t38 -94t-37.5 -93t-93.5 -38q-55 0 -94 38t-39 93zM1460 121q0 55 39 94t94 39t93 -39t38 -94t-37.5 -93t-93.5 -38q-55 0 -94 38t-39 93z" />
<glyph unicode="&#x202f;" horiz-adv-x="362" />
<glyph unicode="&#x2039;" horiz-adv-x="565" d="M61 594l273 391h190l-268 -391l268 -391h-190z" />
<glyph unicode="&#x203a;" horiz-adv-x="565" d="M41 203l268 391l-268 391h190l273 -391l-273 -391h-190z" />
<glyph unicode="&#x205f;" horiz-adv-x="453" />
<glyph unicode="&#x20ac;" horiz-adv-x="1411" d="M133 414v164h162q-4 45 -4 88q0 37 4 82h-162v159h193q47 143 145 245.5t226 154t264 51.5q215 0 350 -96l-82 -158q-104 76 -268 76q-141 0 -256 -70t-170 -203h600l-80 -159h-559q-6 -37 -7 -82q0 -57 7 -88h485l-80 -164h-362q55 -131 165.5 -199t249.5 -68 q92 0 171 28t135 83l100 -143q-78 -68 -182.5 -107t-223.5 -39q-133 0 -258 51.5t-222 151.5t-144 242h-197z" />
<glyph unicode="&#x2122;" horiz-adv-x="1759" d="M61 1313v139h615v-139h-230v-608h-155v608h-230zM805 705v747h203l219 -520l219 520h190v-747h-147v477l-207 -477h-121l-200 471v-471h-156z" />
<glyph unicode="&#x25fc;" horiz-adv-x="983" d="M0 0v983h983v-983h-983z" />
<glyph unicode="&#xfb01;" horiz-adv-x="1236" d="M41 811v174h182v166q0 158 92.5 248t231.5 90q43 0 74.5 -7t40.5 -14v-172q-31 12 -84 13q-63 0 -109.5 -37t-46.5 -129v-158h651v-985h-190v811h-461v-811h-199v811h-182zM840 1362q0 57 40 98t97 41q59 0 99 -40t40 -99q0 -57 -41 -97t-98 -40t-97 40t-40 97z" />
<glyph unicode="&#xfb02;" horiz-adv-x="1232" d="M41 811v174h182v166q0 158 92.5 248t231.5 90q43 0 74.5 -7t40.5 -14v-172q-31 12 -84 13q-64 0 -110 -38t-46 -130v-156h455v498h192v-1483h-192v811h-455v-811h-199v811h-182z" />
<glyph unicode="&#xfb03;" horiz-adv-x="1884" d="M41 811v174h182v166q0 158 92.5 248t231.5 90q43 0 74.5 -7t40.5 -14v-172q-31 12 -84 13q-63 0 -109.5 -38t-46.5 -130v-156h448v166q0 158 92.5 248t231.5 90q43 0 74.5 -7t40.5 -14v-172q-31 12 -84 13q-63 0 -109.5 -38t-46.5 -130v-156h651v-985h-190v811h-461v-811 h-199v811h-448v-811h-199v811h-182zM1487 1362q0 57 40 98t97 41q59 0 99 -40t40 -99q0 -57 -41 -97t-98 -40t-97 40t-40 97z" />
<glyph unicode="&#xfb04;" horiz-adv-x="1884" d="M41 811v174h182v166q0 158 92.5 248t231.5 90q43 0 74.5 -7t40.5 -14v-172q-31 12 -84 13q-63 0 -109.5 -38t-46.5 -130v-156h448v166q0 158 92.5 248t231.5 90q43 0 74.5 -7t40.5 -14v-172q-31 12 -84 13q-63 0 -109.5 -38t-46.5 -130v-156h461v498h190v-1483h-190v811 h-461v-811h-199v811h-448v-811h-199v811h-182z" />
</font>
</defs>
</svg>
