<?xml version="1.0" encoding="UTF-8"?>
<svg width="158px" height="140px" viewBox="0 0 158 140" version="1.1" xmlns="http://www.w3.org/2000/svg" xmlns:xlink="http://www.w3.org/1999/xlink">
    <!-- Generator: Sketch 49.1 (51147) - http://www.bohemiancoding.com/sketch -->
    <title>Page 1 Copy</title>
    <desc>Created with Sketch.</desc>
    <defs></defs>
    <g id="Page-1" stroke="none" stroke-width="1" fill="none" fill-rule="evenodd">
        <g id="1280x720-copy" transform="translate(-1102.000000, -20.000000)" fill="#FFFFFF">
            <g id="Page-1-Copy" transform="translate(1102.000000, 20.000000)">
                <path d="M20.411268,24.9037253 C25.6966319,24.9037253 28.5430504,22.0026257 28.5430504,17.9726219 C28.5430504,13.7009347 25.6966319,11.0415186 20.411268,11.0415186 L12.8478627,11.0415186 L12.8478627,24.9037253 L20.411268,24.9037253 Z M17.401679,35.8648325 L12.8478627,35.8648325 L12.8478627,57.1428571 L0,57.1428571 L0,0 L22.8506667,0 C34.2349808,0 41.5540836,7.73701429 41.5540836,17.8917613 C41.5540836,25.6296741 37.2445698,31.5136323 30.1693162,34.0113272 L41.8795181,57.1428571 L27.7294642,57.1428571 L17.401679,35.8648325 Z" id="Fill-1"></path>
                <path d="M67.5609193,33.9313651 L81.5469375,33.9313651 L74.6355112,14.1838524 L67.5609193,33.9313651 Z M85.6133888,45.5362126 L63.3322088,45.5362126 L59.1855343,57.1428571 L45.686747,57.1428571 L67.3986601,0 L82.2798233,0 L103.746988,57.1428571 L89.7605165,57.1428571 L85.6133888,45.5362126 Z" id="Fill-3"></path>
                <polygon id="Fill-5" points="143.630363 57.1428571 120.16909 19.584893 120.16909 57.1428571 107.554217 57.1428571 107.554217 0 122.981004 0 144.353158 34.7368267 144.353158 0 157.048193 0 157.048193 57.1428571"></polygon>
                <path d="M17.0800246,100.267953 C24.5267254,100.267953 30.6068989,95.9531779 30.6068989,86.2241608 C30.6068989,76.4964911 24.5267254,72.1121007 17.0800246,72.1121007 L10.7947153,72.1121007 L10.7947153,100.267953 L17.0800246,100.267953 Z M0,110.47619 L0,61.9047619 L17.5583764,61.9047619 C32.1100342,61.9047619 41.8795181,71.2210301 41.8795181,86.2241608 C41.8795181,101.227741 32.1100342,110.47619 17.4898485,110.47619 L0,110.47619 Z" id="Fill-7"></path>
                <path d="M71.8955496,100.77278 C78.6036747,100.77278 85.8592554,96.2652499 85.8592554,86.1562197 C85.8592554,76.0462938 78.6036747,71.4698026 71.8955496,71.4698026 C65.1187681,71.4698026 57.8631875,76.0462938 57.8631875,86.1562197 C57.8631875,96.2652499 65.1187681,100.77278 71.8955496,100.77278 M71.8955496,60.952381 C85.5164226,60.952381 97.0843373,70.8558721 97.0843373,86.2242849 C97.0843373,101.52508 85.5164226,111.428571 71.8955496,111.428571 C58.2060203,111.428571 46.6385542,101.52508 46.6385542,86.2242849 C46.6385542,70.8558721 58.2060203,60.952381 71.8955496,60.952381" id="Fill-9"></path>
                <polygon id="Fill-11" points="147.034739 111.239381 147.034739 78.6672538 134.255937 111.239381 125.413985 111.239381 112.633824 79.0825269 112.633824 111.239381 102.272021 111.239381 102.272021 62.1040384 116.502291 62.1040384 129.972635 95.2995299 142.752344 62.1040384 157.74254 62.1040384 157.74254 111.239381"></polygon>
                <polygon id="Fill-14" points="22.2745256 140 22.2745256 123.585312 15.9153803 140 11.5154519 140 5.15630655 123.794324 5.15630655 140 0 140 0 115.238095 7.08138755 115.238095 13.7841369 131.967213 20.1432822 115.238095 27.6024096 115.238095 27.6024096 140"></polygon>
                <path d="M38.8293943,129.941902 L44.7906087,129.941902 L41.8446466,121.384761 L38.8293943,129.941902 Z M46.5237674,134.970951 L37.0273984,134.970951 L35.2593682,140 L29.5060241,140 L38.7601042,115.238095 L45.1030936,115.238095 L54.253012,140 L48.2917976,140 L46.5237674,134.970951 Z" id="Fill-16"></path>
                <polygon id="Fill-18" points="108.506024 140 114.216867 140 114.216867 115.238095 108.506024 115.238095"></polygon>
                <polygon id="Fill-20" points="82.8072289 140 88.5180723 140 88.5180723 115.238095 82.8072289 115.238095"></polygon>
                <polygon id="Fill-21" points="98.9879518 140 104.698795 140 104.698795 115.238095 98.9879518 115.238095"></polygon>
                <polygon id="Fill-22" points="132.334922 140 122.408725 123.724957 122.408725 140 117.072289 140 117.072289 115.238095 123.598696 115.238095 132.640966 130.291015 132.640966 115.238095 138.012048 115.238095 138.012048 140"></polygon>
                <polygon id="Fill-23" points="141.819277 140 141.819277 115.238095 157.014142 115.238095 157.014142 120.441929 147.166511 120.441929 147.166511 125.157004 156.100531 125.157004 156.100531 130.011268 147.166511 130.011268 147.166511 134.761484 157.048193 134.761484 157.048193 140"></polygon>
                <path d="M80.9036145,131.164319 C80.2044894,131.219082 79.6145465,131.273846 78.8628523,131.273846 C75.6408563,131.273846 73.0092525,130.018843 70.7541698,126.855321 L68.9816452,124.346227 C67.6925772,122.546323 66.1352717,121.782825 64.3101779,121.782825 C61.5177214,121.782825 58.8861177,123.691343 58.8861177,127.673583 C58.8861177,131.709218 61.947261,133.836792 65.007955,133.836792 C65.8135663,133.836792 66.8339474,133.728177 67.4243397,133.510034 L66.9948001,139.673699 C66.2431059,139.891385 65.3835774,140 64.5244983,140 C59.1548046,140 53.3012048,135.909601 53.3012048,127.673583 C53.3012048,119.600944 58.563963,115.238095 64.0410417,115.238095 C68.2838681,115.238095 71.290645,117.528134 73.4927092,120.692113 L75.1034825,123.037372 C76.3386334,124.837275 78.1107087,125.764152 80.2044894,125.764152 C80.3123236,125.764152 80.5810105,125.764152 80.9036145,125.710301 L80.9036145,131.164319 Z" id="Fill-24"></path>
                <path d="M90.4216867,128.571865 C90.4216867,126.484377 92.1832695,124.761905 94.2551336,124.761905 C96.3265642,124.761905 98.0361446,126.484377 98.0361446,128.571865 C98.0361446,130.711311 96.3265642,132.380952 94.2551336,132.380952 C92.1832695,132.380952 90.4216867,130.711311 90.4216867,128.571865" id="Fill-25"></path>
            </g>
        </g>
    </g>
</svg>