<?xml version="1.0" encoding="utf-8"?>
<!-- Generator: Adobe Illustrator 22.1.0, SVG Export Plug-In . SVG Version: 6.00 Build 0)  -->
<svg version="1.1" id="Layer_1" xmlns="http://www.w3.org/2000/svg" xmlns:xlink="http://www.w3.org/1999/xlink" x="0px" y="0px"
	 viewBox="0 0 180 180" style="enable-background:new 0 0 180 180;" xml:space="preserve">
<style type="text/css">
	.st0{fill:#E42320;}
	.st1{fill:#E53421;}
	.st2{fill:#E75E22;}
	.st3{fill:#E86622;}
	.st4{fill:#EA8121;}
	.st5{fill:#EA8620;}
	.st6{fill:#EC9A1D;}
	.st7{fill:#EC9D1C;}
	.st8{fill:#EDA11B;}
	.st9{fill:#EDA41B;}
	.st10{fill:#EEB415;}
	.st11{fill:#F0BD11;}
	.st12{fill:#EFC010;}
	.st13{fill:#F0C608;}
	.st14{fill:#F0C806;}
	.st15{fill:#EFBD12;}
	.st16{fill:#EFBF0D;}
	.st17{fill:#F1D300;}
	.st18{fill:#F1D400;}
	.st19{fill:#F2D500;}
	.st20{fill:#F1D800;}
	.st21{fill:#F2D900;}
	.st22{fill:#F2DB00;}
	.st23{fill:#F2DD00;}
	.st24{fill:#F2DE00;}
	.st25{fill:#F1D700;}
	.st26{fill:#F2DF00;}
	.st27{fill:#F3E200;}
	.st28{fill:#F2E200;}
	.st29{fill:#F2E300;}
	.st30{fill:#F2E400;}
	.st31{fill:#F2E500;}
</style>
<title>Page 1</title>
<desc>Created with Sketch.</desc>
<g>
	<polyline class="st0" points="90,0 98,8.8 107.6,1.7 113.7,11.9 124.4,6.9 128.4,18.1 140,15.2 141.7,27 153.6,26.4 153,38.3 
		164.8,40 161.9,51.6 173.1,55.6 168.1,66.3 178.3,72.4 171.2,82 180,90 171.2,98 178.3,107.6 168.1,113.7 173.1,124.4 161.9,128.4 
		164.8,140 153,141.7 153.6,153.6 141.7,153 140,164.8 128.4,161.9 124.4,173.1 113.7,168.1 107.6,178.3 98,171.2 90,180 82,171.2 
		72.4,178.3 66.3,168.1 55.6,173.1 51.6,161.9 40,164.8 38.3,153 26.4,153.6 27,141.7 15.2,140 18.1,128.4 6.9,124.4 11.9,113.7 
		1.7,107.6 8.8,98 0,90 8.8,82 1.7,72.4 11.9,66.3 6.9,55.6 18.1,51.6 15.2,40 27,38.3 26.4,26.4 38.3,27 40,15.2 51.6,18.1 
		55.6,6.9 66.3,11.9 72.4,1.7 82,8.8 90,0 	"/>
	<path class="st1" d="M27.1,43.4c-0.3,0-0.6,0.1-0.9,0.4c-4.1,4.1-5.9,9-5.5,14.6c0.4,5.7,3,10.9,7.8,15.7c1.2,1.2,2.4,2.3,3.7,3.2
		c-2.8-3.8-4.4-7.9-4.7-12.2c-0.4-5.7,1.5-10.6,5.5-14.6c0,0,0,0,0,0c0.5-0.6,0.5-1.2,0-1.6l-5.1-5.1C27.7,43.5,27.4,43.4,27.1,43.4
		 M56.3,20.9c-4.1,0-7.7,1.6-10.9,4.8c-3.7,3.7-5.5,7.6-5.4,11.7c0.1,4.1,2.2,8.9,6.1,14.5l3.2,4.7c0.7,1,1.5,2.3,2.3,4
		c0.9,1.7,1.4,3,1.5,4c0.1,1,0,2.1-0.3,3.3c-0.1,0.2-0.1,0.4-0.2,0.7l0.5,0.5c0.5,0.5,0.5,1,0,1.6c0.3-0.3,0.6-0.4,0.8-0.4
		c0.3,0,0.5,0.1,0.8,0.4l4.6,4.6c0.1-0.2,0.1-0.4,0.2-0.7c0.3-1.2,0.4-2.3,0.3-3.3c-0.1-1-0.6-2.3-1.5-4c-0.9-1.7-1.7-3-2.3-4
		l-3.2-4.7c-4-5.6-6-10.4-6.1-14.5c-0.1-4.1,1.7-8,5.4-11.7c3.2-3.2,6.8-4.8,10.9-4.8c0.9,0,1.8,0.1,2.7,0.2
		c3.8,0.6,7.3,2.1,10.5,4.4c-1-1.3-2.1-2.6-3.4-3.8c-4-4-8.7-6.5-13.8-7.4C58.1,20.9,57.2,20.9,56.3,20.9"/>
	<path class="st2" d="M32.2,77.3c0.9,1.2,1.9,2.4,3.1,3.5c1.2,1.2,2.4,2.3,3.7,3.2c-1-1.3-1.8-2.7-2.5-4.1
		C35,79.3,33.6,78.4,32.2,77.3 M63.1,70.5c-0.5,1.9-1.4,3.8-2.9,5.6c0.2,0.4,0.1,0.9-0.2,1.4c0.3-0.3,0.6-0.4,0.8-0.4
		c0.3,0,0.5,0.1,0.8,0.4l4.6,4.6c0.1-0.2,0.1-0.4,0.2-0.7c0.3-1.2,0.4-2.3,0.3-3.3c-0.1-1-0.6-2.3-1.5-4
		C64.4,72.6,63.7,71.4,63.1,70.5 M33.9,50.1c-0.3,0-0.6,0.1-0.8,0.4c0,0,0,0,0,0.1c-2.1,2.8-3,5.7-2.6,8.7c0.3,2.7,1.7,5.4,4,7.9
		c0.6-3.7,2.4-7,5.3-10c0,0,0,0,0,0c0.5-0.6,0.5-1.2,0-1.6l-5.1-5.1C34.4,50.2,34.1,50.1,33.9,50.1 M76.2,32.3
		c1.1,1.4,2,2.9,2.7,4.3c1.4,0.7,2.7,1.5,4,2.4c-1-1.3-2.1-2.6-3.4-3.8C78.5,34.1,77.4,33.1,76.2,32.3 M57.2,30.2
		c-1.9,0-3.6,0.7-5,2.2c-1.8,1.8-2.5,4-2.1,6.8c0.3,2.2,1.5,5,3.7,8.4c0.7-2.9,2.4-5.7,5.1-8.5c2.3-2.3,4.8-3.7,7.5-4.4
		C64,32.4,61.5,31,59,30.4C58.3,30.3,57.7,30.2,57.2,30.2"/>
	<path class="st3" d="M33,50.5C33,50.5,33,50.5,33,50.5c-4.1,4.1-5.9,9-5.6,14.7c0.3,4.3,1.9,8.4,4.7,12.2c1.4,1,2.8,1.9,4.2,2.7
		c-1.3-2.6-2-5.3-2.2-8.1c-0.1-1.6,0-3.2,0.2-4.7c-2.3-2.6-3.7-5.2-4-7.9C30,56.3,30.9,53.4,33,50.5C33,50.5,33,50.5,33,50.5
		 M63,27.6c-4.1,0-7.7,1.6-10.9,4.8c-3.7,3.7-5.5,7.6-5.4,11.7c0.1,4.1,2.2,8.9,6.1,14.5l3.2,4.7c0.7,1,1.5,2.3,2.3,4
		c0.9,1.7,1.4,3,1.5,4c0.1,1,0,2.1-0.3,3.3c-0.1,0.2-0.1,0.4-0.2,0.7l0.5,0.5c0.1,0.1,0.2,0.2,0.2,0.3c1.5-1.8,2.5-3.6,2.9-5.6
		c-0.1-0.2-0.2-0.3-0.3-0.4l-3.2-4.7c-4-5.6-6-10.4-6.1-14.5c0-1.1,0.1-2.2,0.3-3.3c-2.2-3.4-3.5-6.2-3.7-8.4
		c-0.4-2.8,0.3-5,2.1-6.8c1.4-1.4,3.1-2.2,5-2.2c0.6,0,1.2,0.1,1.8,0.2c2.6,0.6,5,2,7.4,4.3c1.1-0.3,2.2-0.4,3.4-0.4
		c0.9,0,1.8,0.1,2.7,0.2c2.3,0.4,4.4,1.1,6.4,2c-0.7-1.5-1.6-2.9-2.7-4.3c-3.2-2.3-6.7-3.8-10.5-4.4C64.8,27.7,63.9,27.6,63,27.6"/>
	<path class="st4" d="M69.9,77.2c-0.5,1.9-1.4,3.8-2.9,5.6c0.2,0.4,0.1,0.9-0.3,1.4c-2.1,2.8-3,5.7-2.6,8.7c0,0.1,0,0.3,0.1,0.4
		c0.7,0.2,1.4,0.2,2,0.2c1.9,0,3.6-0.7,5.1-2.2c1-1,1.6-2.1,1.9-3.3c0.3-1.2,0.4-2.3,0.3-3.3c-0.1-1-0.6-2.3-1.5-4
		C71.1,79.3,70.5,78.1,69.9,77.2 M83,39c1.1,1.4,2,2.9,2.7,4.3c1.4,0.7,2.7,1.5,4,2.4c-1-1.3-2.1-2.6-3.4-3.8
		C85.3,40.8,84.1,39.9,83,39 M63.9,37c-1.9,0-3.6,0.7-5,2.2c-1.8,1.8-2.5,4-2.1,6.8c0.3,2.2,1.5,5,3.7,8.4c0.7-2.9,2.4-5.7,5.1-8.5
		c1.7-1.7,3.6-3,5.6-3.8c-0.3-1.1-0.8-2.2-1.5-3.3c-1.3-0.8-2.6-1.3-4-1.6C65.1,37,64.5,37,63.9,37"/>
	<path class="st5" d="M69.7,38.8c0.7,1.1,1.2,2.2,1.5,3.3c0.6-0.2,1.3-0.5,1.9-0.6C72,40.4,70.9,39.5,69.7,38.8"/>
	<path class="st6" d="M63.4,67.5c0,1-0.1,2-0.3,3c0.6,0.9,1.3,2.1,2,3.5c0.9,1.7,1.4,3,1.5,4c0.1,1,0,2.1-0.3,3.3
		c-0.1,0.2-0.1,0.4-0.2,0.7l0.5,0.5c0.1,0.1,0.2,0.2,0.2,0.3c1.5-1.8,2.5-3.6,2.9-5.6c-0.1-0.2-0.2-0.3-0.3-0.4l-3.2-4.7
		C65.2,70.5,64.3,69,63.4,67.5 M79,36.6c0.8,1.6,1.4,3.3,1.8,5c1.7,0.4,3.3,1,4.9,1.7C85,41.9,84.1,40.4,83,39
		C81.7,38.1,80.4,37.3,79,36.6 M66.4,34.7c-2.7,0.7-5.2,2.1-7.5,4.4c-2.7,2.7-4.4,5.5-5.1,8.5c0.6,0.9,1.3,1.9,2,2.9
		c1.8,2.5,3.3,4.9,4.4,7.1c0,0,0,0,0,0c0-1.1,0.1-2.2,0.3-3.3c-2.2-3.4-3.5-6.2-3.7-8.4c-0.4-2.8,0.3-5,2.1-6.8
		c1.4-1.4,3.1-2.2,5-2.2c0.6,0,1.2,0.1,1.8,0.2c1.4,0.3,2.7,0.8,4,1.6c-0.8-1.3-1.8-2.6-3.1-3.9C66.5,34.9,66.4,34.8,66.4,34.7"/>
	<path class="st7" d="M53.8,47.6c-0.2,1.1-0.4,2.2-0.3,3.3c0.1,4.1,2.2,8.9,6.1,14.5l3.2,4.7c0.1,0.1,0.2,0.3,0.3,0.4
		c0.2-1,0.3-2,0.3-3c-2-3.7-3.1-7-3.2-9.9c-1.2-2.2-2.6-4.6-4.4-7.1C55.1,49.5,54.4,48.5,53.8,47.6 M69.8,34.3
		c-1.2,0-2.3,0.1-3.4,0.4c0.1,0.1,0.1,0.1,0.2,0.2c1.3,1.3,2.3,2.6,3.1,3.9c1.2,0.7,2.3,1.6,3.4,2.7c1.1-0.3,2.2-0.4,3.4-0.4
		c0.9,0,1.8,0.1,2.7,0.2c0.5,0.1,1,0.2,1.5,0.3c-0.4-1.7-1-3.4-1.8-5c-2-1-4.2-1.7-6.4-2C71.6,34.4,70.7,34.3,69.8,34.3"/>
	<path class="st4" d="M90.8,63.9c-1.9,0-3.6,0.7-5,2.2c-0.3,0.3-0.6,0.7-0.9,1.1l3.3,3.3c0.3,0.3,0.6,0.4,0.9,0.4
		c0.3,0,0.6-0.1,0.9-0.4c0.2-0.2,0.4-0.4,0.6-0.6c1-1.9,1.4-3.8,1.2-5.8C91.4,63.9,91.1,63.9,90.8,63.9"/>
	<path class="st4" d="M38.9,84.1c0.9,1.2,1.9,2.4,3.1,3.5c1.2,1.2,2.4,2.3,3.7,3.2c-1-1.3-1.8-2.7-2.5-4.1
		C41.7,86,40.3,85.1,38.9,84.1 M40.6,56.8c-0.3,0-0.6,0.1-0.8,0.4c0,0,0,0,0,0.1c-2.1,2.8-3,5.7-2.6,8.7c0.2,1.7,0.8,3.4,1.8,5.1
		c0.8,0.5,1.7,1,2.5,1.3c0.8-3.1,2.5-5.9,5-8.4c0,0,0,0,0,0c0.5-0.6,0.5-1.2,0-1.6l-5.1-5.1C41.1,57,40.9,56.8,40.6,56.8"/>
	<path class="st5" d="M39,71.1c0.6,1,1.3,1.9,2.2,2.9c0.1-0.5,0.2-1.1,0.3-1.6C40.6,72,39.8,71.6,39,71.1"/>
	<path class="st6" d="M36.4,80c0.7,1.4,1.5,2.7,2.5,4.1c1.4,1,2.8,1.9,4.2,2.7c-0.8-1.6-1.3-3.2-1.7-4.8C39.7,81.5,38,80.8,36.4,80
		 M39.8,57.2C39.8,57.2,39.8,57.2,39.8,57.2c-2.9,2.9-4.7,6.3-5.3,10c0.2,0.3,0.5,0.5,0.8,0.8c1.2,1.2,2.5,2.2,3.8,3.1
		c-1-1.7-1.6-3.3-1.8-5.1C36.7,63,37.6,60.1,39.8,57.2C39.7,57.3,39.8,57.3,39.8,57.2"/>
	<path class="st7" d="M34.4,67.2c-0.3,1.5-0.3,3.1-0.2,4.7c0.2,2.8,0.9,5.5,2.2,8.1c1.6,0.8,3.3,1.5,5,1.9c-0.2-1.1-0.4-2.2-0.5-3.3
		c-0.1-1.6,0-3.2,0.2-4.7c-0.9-1-1.6-1.9-2.2-2.9c-1.3-0.8-2.6-1.8-3.8-3.1C34.9,67.7,34.7,67.5,34.4,67.2"/>
	<path class="st8" d="M45.6,90.8c0.9,1.2,1.9,2.4,3.1,3.5c1.2,1.2,2.4,2.3,3.7,3.2c-1-1.3-1.8-2.7-2.5-4.1
		C48.4,92.7,47,91.8,45.6,90.8 M76.6,84c-0.6,2.4-2,4.7-4.2,6.9c-2.3,2.3-4.9,3.8-7.7,4.6c0.3,0.8,0.7,1.7,1.2,2.5
		c1.5,0.9,3,1.6,4.6,2c0.8,0.2,1.6,0.3,2.4,0.3c1.9,0,3.6-0.7,5.1-2.2c1-1,1.6-2.1,1.9-3.3c0.3-1.2,0.4-2.3,0.3-3.3
		c-0.1-1-0.6-2.3-1.5-4C77.9,86.1,77.2,84.9,76.6,84 M70.6,43.7c-1.9,0-3.6,0.7-5,2.2c-1.8,1.8-2.5,4-2.1,6.8c0.3,2.2,1.5,5,3.7,8.4
		c0.6-2.6,2-5,4.1-7.4l-1.5-1.5c-0.4-0.4-0.4-1,0-1.7c1.3-2.2,1.8-4.4,1.6-6.6C71.2,43.7,70.9,43.7,70.6,43.7"/>
	<path class="st9" d="M71.5,43.8c0.2,2.2-0.3,4.4-1.6,6.6c-0.4,0.8-0.4,1.3,0,1.7l1.5,1.5c0.3-0.3,0.6-0.7,1-1
		c1.7-1.7,3.6-3,5.6-3.8c-0.3-1.1-0.8-2.2-1.5-3.3c-1.3-0.8-2.6-1.3-4-1.6C72.1,43.8,71.8,43.8,71.5,43.8"/>
	<path class="st10" d="M76.4,45.5c0.7,1.1,1.2,2.2,1.5,3.3c0.6-0.2,1.3-0.5,1.9-0.6C78.7,47.1,77.6,46.2,76.4,45.5"/>
	<path class="st8" d="M93.9,64.4c-0.7,1.9-1.8,3.7-3.3,5.3c-0.1,0.3-0.3,0.5-0.4,0.8c-0.4,0.8-0.4,1.3,0,1.7l4.8,4.8
		c0.3,0.3,0.6,0.4,0.9,0.4c0.3,0,0.6-0.1,0.9-0.4c0.2-0.2,0.4-0.4,0.6-0.6c1.8-3.5,1.6-7.1-0.7-10.7C95.7,65.2,94.8,64.8,93.9,64.4
		 M47.3,63.6c-0.3,0-0.6,0.1-0.8,0.4c0,0,0,0,0,0.1c-2.1,2.8-3,5.7-2.6,8.7c0,0.1,0,0.3,0.1,0.4c0.7,0.2,1.4,0.2,2,0.2
		c1.9,0,3.6-0.7,5.1-2.2c0.8-0.8,1.4-1.7,1.7-2.7l-4.6-4.6C47.9,63.7,47.6,63.6,47.3,63.6 M89.7,45.7c1.1,1.4,2,2.9,2.7,4.3
		c1.4,0.7,2.7,1.5,4,2.4c-1-1.3-2.1-2.6-3.4-3.8C92,47.6,90.9,46.6,89.7,45.7"/>
	<path class="st9" d="M52.7,68.5c-0.4,1-0.9,1.9-1.7,2.7c-1.5,1.5-3.2,2.2-5.1,2.2c-0.6,0-1.3-0.1-2-0.2c0.3,1.6,0.9,3.1,1.8,4.6
		c0.8,0.5,1.7,1,2.5,1.3c0.8-3.1,2.5-5.9,5-8.4c0,0,0,0,0,0c0.5-0.6,0.5-1.2,0-1.6L52.7,68.5"/>
	<path class="st10" d="M45.7,77.8c0.6,1,1.3,1.9,2.2,2.9c0.1-0.5,0.2-1.1,0.3-1.6C47.4,78.7,46.5,78.3,45.7,77.8"/>
	<path class="st11" d="M43.1,86.7c0.7,1.4,1.5,2.7,2.5,4.1c1.4,1,2.8,1.9,4.2,2.7c-0.8-1.6-1.3-3.2-1.7-4.8
		C46.4,88.2,44.8,87.6,43.1,86.7 M70.2,74.2c0,1-0.1,2-0.3,3c0.6,0.9,1.3,2.1,2,3.5c0.9,1.7,1.4,3,1.5,4c0.1,1,0,2.1-0.3,3.3
		c-0.3,1.2-1,2.3-1.9,3.3c-1.5,1.5-3.2,2.2-5.1,2.2c-0.6,0-1.3-0.1-2-0.2c0.1,0.7,0.3,1.5,0.6,2.2c2.8-0.8,5.4-2.3,7.7-4.6
		c2.2-2.2,3.6-4.5,4.2-6.9c-0.1-0.2-0.2-0.3-0.3-0.4l-3.2-4.7C72,77.2,71,75.7,70.2,74.2 M46.5,64C46.5,64,46.5,64,46.5,64
		c-2.5,2.5-4.2,5.3-5,8.4c0.7,0.3,1.3,0.5,2,0.7c0.1,0,0.3,0.1,0.4,0.1c0-0.1,0-0.3-0.1-0.4C43.5,69.7,44.3,66.8,46.5,64
		C46.5,64,46.5,64,46.5,64 M91.7,64c0.2,2-0.2,3.9-1.2,5.8c1.5-1.6,2.6-3.4,3.3-5.3c-0.4-0.1-0.8-0.2-1.2-0.3C92.3,64,92,64,91.7,64
		 M85.7,43.3c0.8,1.6,1.4,3.3,1.8,5c1.7,0.4,3.3,1,4.9,1.7c-0.7-1.5-1.6-2.9-2.7-4.3C88.4,44.8,87.1,44,85.7,43.3 M71.2,42.1
		c-2,0.8-3.8,2.1-5.6,3.8c-2.7,2.7-4.4,5.5-5.1,8.5c0.6,0.9,1.3,1.9,2,2.9c1.8,2.5,3.3,4.9,4.4,7.1c0,0,0,0,0,0
		c0-1.1,0.1-2.2,0.3-3.3c-2.2-3.4-3.5-6.2-3.7-8.4c-0.4-2.8,0.3-5,2.1-6.8c1.4-1.4,3.1-2.2,5-2.2c0.3,0,0.6,0,0.9,0.1
		C71.5,43.2,71.4,42.6,71.2,42.1"/>
	<path class="st12" d="M41.5,72.4c-0.1,0.5-0.3,1-0.3,1.6c0.2,0.3,0.5,0.5,0.8,0.8c1.2,1.2,2.5,2.2,3.8,3.1
		c-0.9-1.5-1.5-3.1-1.8-4.6c-0.1,0-0.3-0.1-0.4-0.1C42.8,72.9,42.2,72.6,41.5,72.4 M73.1,41.5c-0.6,0.2-1.3,0.4-1.9,0.6
		c0.2,0.6,0.3,1.1,0.3,1.7c0.3,0,0.6,0.1,0.9,0.1c1.4,0.3,2.7,0.8,4,1.6c-0.8-1.3-1.8-2.6-3.1-3.9C73.2,41.6,73.2,41.5,73.1,41.5"/>
	<path class="st13" d="M41.4,81.9c0.4,1.6,0.9,3.3,1.7,4.8c1.6,0.8,3.3,1.5,5,1.9c-0.2-1.1-0.4-2.2-0.5-3.3c-0.1-0.9-0.1-1.9,0-2.8
		c-0.3,0-0.5,0-0.8,0c-0.8,0-1.7-0.1-2.6-0.2C43.3,82.3,42.4,82.1,41.4,81.9 M60.5,54.3c-0.2,1.1-0.4,2.2-0.3,3.3c0,0,0,0,0,0
		c1.5,2.8,2.4,5.4,3,7.8c0.1,0.7,0.2,1.4,0.3,2.1c0.8,1.5,1.8,3,2.9,4.6l3.2,4.7c0.1,0.1,0.2,0.3,0.3,0.4c0.2-1,0.3-2,0.3-3
		c-2-3.7-3.1-7-3.2-9.9c-1.2-2.2-2.6-4.6-4.4-7.1C61.8,56.2,61.1,55.2,60.5,54.3 M80.8,41.6c0.1,0.6,0.3,1.3,0.3,1.9
		c0.2,1.5,0.2,3,0,4.4c0.7-0.1,1.4-0.1,2.1-0.1c0.9,0,1.8,0.1,2.7,0.2c0.5,0.1,1,0.2,1.5,0.3c-0.4-1.7-1-3.4-1.8-5
		C84.1,42.6,82.5,42,80.8,41.6"/>
	<path class="st14" d="M41.2,73.9c-0.3,1.5-0.3,3.1-0.2,4.7c0.1,1.1,0.2,2.2,0.5,3.3c0.9,0.2,1.9,0.4,2.8,0.5
		c0.9,0.1,1.7,0.2,2.6,0.2c0.3,0,0.6,0,0.8,0c0-0.7,0.1-1.3,0.2-1.9c-0.9-1-1.6-1.9-2.2-2.9c-1.3-0.8-2.6-1.8-3.8-3.1
		C41.7,74.5,41.4,74.2,41.2,73.9 M60.2,57.6c0.1,2.9,1.2,6.2,3.2,9.9c0-0.7-0.1-1.4-0.3-2.1C62.7,63,61.7,60.4,60.2,57.6 M76.5,41.1
		c-1.2,0-2.3,0.1-3.4,0.4c0.1,0.1,0.1,0.1,0.2,0.2c1.3,1.3,2.3,2.6,3.1,3.9c1.2,0.7,2.3,1.6,3.4,2.7c0.4-0.1,0.9-0.2,1.3-0.3
		c0.2-1.4,0.2-2.9,0-4.4c-0.1-0.6-0.2-1.3-0.3-1.9c-0.5-0.1-1-0.2-1.5-0.3C78.3,41.1,77.4,41.1,76.5,41.1"/>
	<path class="st15" d="M83.3,90.7c-0.6,2.4-2,4.7-4.2,6.9c-2.7,2.7-5.8,4.4-9.3,5c2.3,2.1,4.8,3.4,7.4,4.1c0.8,0.2,1.6,0.3,2.4,0.3
		c1.9,0,3.6-0.7,5.1-2.2c1-1,1.6-2.1,1.9-3.3c0.3-1.2,0.4-2.3,0.3-3.3c-0.1-1-0.6-2.3-1.5-4C84.6,92.8,83.9,91.6,83.3,90.7
		 M71.5,53.7c-1.1,1.6-1.5,3.5-1.2,5.7c0.3,2.2,1.5,5,3.7,8.4c0.6-2.6,2-5,4.1-7.4l-1.5-1.5c-0.4-0.4-0.4-1,0-1.7
		c0.2-0.3,0.3-0.5,0.4-0.8c-0.2,0.2-0.4,0.4-0.6,0.6c-0.3,0.3-0.6,0.4-0.9,0.4c-0.3,0-0.6-0.1-0.9-0.4L71.5,53.7 M96.4,52.5
		c1.1,1.4,2,2.9,2.7,4.3c1.4,0.7,2.7,1.5,4,2.4c-1-1.3-2.1-2.6-3.4-3.8C98.7,54.3,97.6,53.3,96.4,52.5"/>
	<path class="st16" d="M77.4,50.4c-1.9,0-3.6,0.7-5,2.2c-0.3,0.3-0.6,0.7-0.9,1.1l3.3,3.3c0.3,0.3,0.6,0.4,0.9,0.4
		c0.3,0,0.6-0.1,0.9-0.4c0.2-0.2,0.4-0.4,0.6-0.6c1-1.9,1.4-3.8,1.2-5.8C78,50.5,77.7,50.4,77.4,50.4"/>
	<path class="st13" d="M80.4,51c-0.7,1.9-1.8,3.7-3.3,5.3c-0.1,0.3-0.3,0.5-0.4,0.8c-0.4,0.8-0.4,1.3,0,1.7l1.5,1.5
		c0.3-0.3,0.6-0.7,1-1c1.7-1.7,3.6-3,5.6-3.8c-0.3-1.1-0.8-2.2-1.5-3.3C82.3,51.7,81.3,51.3,80.4,51"/>
	<path class="st14" d="M78.3,50.5c0.2,2-0.2,3.9-1.2,5.8c1.5-1.6,2.6-3.4,3.3-5.3c-0.4-0.1-0.8-0.2-1.2-0.3
		C78.9,50.6,78.6,50.5,78.3,50.5"/>
	<path class="st17" d="M83.2,52.3c0.7,1.1,1.2,2.2,1.5,3.3c0.6-0.2,1.3-0.5,1.9-0.6C85.5,53.9,84.3,53,83.2,52.3"/>
	<path class="st18" d="M76.9,80.9c0,1-0.1,2-0.3,3c0.6,0.9,1.3,2.1,2,3.5c0.9,1.7,1.4,3,1.5,4c0.1,1,0,2.1-0.3,3.3
		c-0.3,1.2-1,2.3-1.9,3.3c-1.5,1.5-3.2,2.2-5.1,2.2c-0.8,0-1.6-0.1-2.4-0.3c-1.6-0.4-3.1-1.1-4.6-2c0.8,1.2,1.7,2.5,3,3.7
		c0.3,0.3,0.7,0.6,1,0.9c3.5-0.6,6.6-2.2,9.3-5c2.2-2.2,3.6-4.5,4.2-6.9c-0.1-0.2-0.2-0.3-0.3-0.4l-3.2-4.7
		C78.7,84,77.7,82.4,76.9,80.9 M71.4,53.6c-2.2,2.4-3.5,4.9-4.1,7.4c0.6,0.9,1.3,1.9,2,2.9c1.8,2.5,3.3,4.9,4.4,7.1c0,0,0,0,0,0
		c0-1.1,0.1-2.2,0.3-3.3c-2.2-3.4-3.5-6.2-3.7-8.4C70,57.1,70.4,55.2,71.4,53.6L71.4,53.6"/>
	<path class="st19" d="M77.9,48.8c-2,0.8-3.8,2.1-5.6,3.8c-0.3,0.3-0.6,0.7-1,1l0.1,0.1c0.3-0.4,0.6-0.7,0.9-1.1
		c1.4-1.4,3.1-2.2,5-2.2c0.3,0,0.6,0,0.9,0.1C78.2,49.9,78.1,49.4,77.9,48.8"/>
	<path class="st20" d="M80.9,49.3c-0.1,0.6-0.3,1.1-0.5,1.7c0.9,0.3,1.9,0.7,2.8,1.3C82.6,51.3,81.8,50.3,80.9,49.3"/>
	<path class="st21" d="M79.8,48.2c-0.6,0.2-1.3,0.4-1.9,0.6c0.2,0.6,0.3,1.1,0.3,1.7c0.3,0,0.6,0.1,0.9,0.1c0.4,0.1,0.8,0.2,1.2,0.3
		c0.2-0.6,0.4-1.1,0.5-1.7c-0.3-0.3-0.6-0.6-0.9-0.9C80,48.3,79.9,48.3,79.8,48.2"/>
	<path class="st18" d="M92.4,50.1c0.8,1.6,1.4,3.3,1.8,5c1.7,0.4,3.3,1,4.9,1.7c-0.7-1.5-1.6-2.9-2.7-4.3
		C95.2,51.5,93.8,50.7,92.4,50.1"/>
	<path class="st22" d="M67.3,61c-0.2,1.1-0.4,2.2-0.3,3.3c0,0,0,0,0,0c1.5,2.8,2.4,5.4,3,7.8c0.1,0.7,0.2,1.4,0.3,2.1
		c0.8,1.5,1.8,3,2.9,4.6l3.2,4.7c0.1,0.1,0.2,0.3,0.3,0.4c0.2-1,0.3-2,0.3-3c-2-3.7-3.1-7-3.2-9.9c-1.2-2.2-2.6-4.6-4.4-7.1
		C68.5,62.9,67.9,62,67.3,61 M87.5,48.3c0.1,0.6,0.3,1.3,0.3,1.9c0.2,1.5,0.2,3,0,4.4c0.7-0.1,1.4-0.1,2.1-0.1
		c0.9,0,1.8,0.1,2.7,0.2c0.5,0.1,1,0.2,1.5,0.3c-0.4-1.7-1-3.4-1.8-5C90.9,49.3,89.2,48.7,87.5,48.3"/>
	<path class="st23" d="M67,64.3c0.1,2.9,1.2,6.2,3.2,9.9c0-0.7-0.1-1.4-0.3-2.1C69.4,69.7,68.4,67.1,67,64.3 M83.2,47.8
		c-0.7,0-1.4,0-2.1,0.1c-0.1,0.5-0.1,0.9-0.2,1.3c0.9,1,1.7,2,2.3,3c1.2,0.7,2.3,1.6,3.4,2.7c0.4-0.1,0.9-0.2,1.3-0.3
		c0.2-1.4,0.2-2.9,0-4.4c-0.1-0.6-0.2-1.3-0.3-1.9c-0.5-0.1-1-0.2-1.5-0.3C85,47.9,84.1,47.8,83.2,47.8"/>
	<path class="st24" d="M81.1,47.9c-0.4,0.1-0.9,0.1-1.3,0.3c0.1,0.1,0.1,0.1,0.2,0.2c0.3,0.3,0.6,0.6,0.9,0.9
		C81,48.8,81.1,48.4,81.1,47.9"/>
	<path class="st15" d="M101.1,69.5c-0.6,2.6-1.8,4.9-3.8,7c-0.1,0.3-0.3,0.5-0.4,0.8c-0.4,0.8-0.4,1.3,0,1.7l4.8,4.8
		c0.3,0.3,0.6,0.4,0.9,0.4c0.3,0,0.6-0.1,0.9-0.4c0.2-0.2,0.4-0.4,0.6-0.6C106.4,78.8,105.4,74.2,101.1,69.5"/>
	<path class="st18" d="M96.6,65.7c2.3,3.7,2.5,7.2,0.7,10.7c1.9-2.1,3.2-4.4,3.8-7c-0.3-0.3-0.6-0.6-0.9-0.9
		C99.1,67.4,97.9,66.5,96.6,65.7"/>
	<path class="st15" d="M52.4,97.5c0.9,1.2,1.9,2.4,3.1,3.5c1.2,1.2,2.4,2.3,3.7,3.2c-1-1.3-1.8-2.7-2.5-4.1
		C55.2,99.5,53.8,98.6,52.4,97.5"/>
	<path class="st16" d="M54.1,70.3c-0.3,0-0.6,0.1-0.8,0.4c0,0,0,0,0,0.1c-2.1,2.8-3,5.7-2.6,8.7c0,0.1,0,0.3,0.1,0.4
		c0.7,0.2,1.4,0.2,2,0.2c1.9,0,3.6-0.7,5.1-2.2c0.8-0.8,1.4-1.7,1.7-2.7l-4.6-4.6C54.6,70.4,54.3,70.3,54.1,70.3"/>
	<path class="st13" d="M60.2,76.1c-0.4,0.5-0.8,0.9-1.3,1.4c-2.3,2.3-4.9,3.8-7.7,4.6c0.3,0.8,0.7,1.7,1.2,2.5
		c0.8,0.5,1.7,1,2.5,1.3c0.8-3.1,2.5-5.9,5-8.4c0,0,0,0,0,0C60.3,76.9,60.4,76.5,60.2,76.1"/>
	<path class="st14" d="M59.5,75.3c-0.4,1-0.9,1.9-1.7,2.7c-1.5,1.5-3.2,2.2-5.1,2.2c-0.6,0-1.3-0.1-2-0.2c0.1,0.7,0.3,1.5,0.6,2.2
		c2.8-0.8,5.4-2.3,7.7-4.6c0.5-0.5,0.9-0.9,1.3-1.4c-0.1-0.1-0.1-0.2-0.2-0.3L59.5,75.3"/>
	<path class="st17" d="M52.4,84.5c0.6,1,1.3,1.9,2.2,2.9c0.1-0.5,0.2-1.1,0.3-1.6C54.1,85.5,53.3,85,52.4,84.5"/>
	<path class="st18" d="M49.9,93.5c0.7,1.4,1.5,2.8,2.5,4.1c1.4,1,2.8,1.9,4.2,2.7c-0.8-1.6-1.3-3.2-1.7-4.8
		C53.2,94.9,51.5,94.3,49.9,93.5"/>
	<path class="st19" d="M53.2,70.7C53.2,70.7,53.2,70.7,53.2,70.7c-2.5,2.5-4.2,5.3-5,8.4c0.7,0.3,1.3,0.5,2,0.7
		c0.1,0,0.3,0.1,0.4,0.1c0-0.1,0-0.3-0.1-0.4C50.2,76.5,51.1,73.6,53.2,70.7C53.2,70.7,53.2,70.7,53.2,70.7"/>
	<path class="st20" d="M51.2,82.1c-0.5,0.1-1.1,0.3-1.6,0.3c0.9,0.8,1.8,1.5,2.8,2.1C51.9,83.7,51.5,82.9,51.2,82.1"/>
	<path class="st21" d="M48.2,79.1c-0.1,0.5-0.3,1-0.3,1.6c0.2,0.3,0.5,0.5,0.8,0.8c0.3,0.3,0.7,0.6,1,0.9c0.5-0.1,1.1-0.2,1.6-0.3
		c-0.3-0.7-0.5-1.4-0.6-2.2c-0.1,0-0.3-0.1-0.4-0.1C49.6,79.6,48.9,79.4,48.2,79.1"/>
	<path class="st22" d="M48.2,88.6c0.4,1.7,0.9,3.3,1.7,4.8c1.6,0.8,3.3,1.5,5,1.9c-0.2-1.1-0.4-2.2-0.5-3.3c-0.1-0.9-0.1-1.9,0-2.8
		c-0.3,0-0.5,0-0.8,0c-0.8,0-1.7-0.1-2.6-0.2C50,89.1,49.1,88.9,48.2,88.6"/>
	<path class="st23" d="M49.6,82.4c-0.6,0.1-1.3,0.2-2,0.2c-0.1,0.9-0.1,1.8,0,2.8c0.1,1.1,0.2,2.2,0.5,3.3c0.9,0.2,1.9,0.4,2.8,0.5
		c0.9,0.1,1.7,0.2,2.6,0.2c0.3,0,0.6,0,0.8,0c0-0.7,0.1-1.3,0.2-1.9c-0.9-1-1.6-1.9-2.2-2.9C51.5,83.9,50.5,83.2,49.6,82.4"/>
	<path class="st24" d="M47.9,80.7c-0.1,0.6-0.2,1.3-0.2,1.9c0.7,0,1.3-0.1,2-0.2c-0.3-0.3-0.7-0.6-1-0.9
		C48.4,81.2,48.1,80.9,47.9,80.7"/>
	<path class="st25" d="M78.2,60.4c-1.1,1.6-1.5,3.5-1.2,5.7c0.4,2.8,2.3,6.5,5.7,11.3c4,5.6,6.5,10.6,7.4,14.9
		c0.9,4.3-0.5,8.3-4.2,12c-3.5,3.5-7.5,5.2-12.1,5.2c-0.8,0-1.7-0.1-2.6-0.2c-4.3-0.6-8.3-2.3-12.1-5.1c0.9,1.2,1.9,2.4,3.1,3.5
		c4.8,4.8,10,7.6,15.7,8.3c0.9,0.1,1.7,0.2,2.6,0.2c4.6,0,8.6-1.7,12.1-5.2c3.7-3.7,5.1-7.7,4.2-12c-0.9-4.3-3.4-9.3-7.4-14.9
		c-3.5-4.8-5.4-8.6-5.7-11.3c-0.3-2.2,0.1-4.1,1.2-5.7l-1.6-1.6c-0.4-0.4-0.4-1,0-1.7c0.2-0.3,0.3-0.5,0.4-0.8
		c-0.2,0.2-0.4,0.4-0.6,0.6c-0.3,0.3-0.6,0.4-0.9,0.4c-0.3,0-0.6-0.1-0.9-0.4L78.2,60.4"/>
	<path class="st22" d="M84.1,57.2c-1.9,0-3.6,0.7-5,2.2c-0.3,0.3-0.6,0.7-0.9,1.1l3.3,3.3c0.3,0.3,0.6,0.4,0.9,0.4
		c0.3,0,0.6-0.1,0.9-0.4c0.2-0.2,0.4-0.4,0.6-0.6c1-1.9,1.4-3.8,1.2-5.8C84.7,57.2,84.4,57.2,84.1,57.2"/>
	<path class="st23" d="M87.1,57.7c-0.7,1.9-1.8,3.7-3.3,5.3c-0.1,0.3-0.3,0.5-0.4,0.8c-0.4,0.8-0.4,1.3,0,1.7l1.6,1.6
		c0.3-0.4,0.6-0.7,0.9-1.1c1.4-1.4,3.1-2.2,5-2.2c0.3,0,0.6,0,0.9,0.1c-0.2-1.6-0.8-3.3-1.8-5C89,58.5,88.1,58,87.1,57.7"/>
	<path class="st26" d="M85,57.2c0.2,2-0.2,3.9-1.2,5.8c1.5-1.6,2.6-3.4,3.3-5.3c-0.4-0.1-0.8-0.2-1.2-0.3
		C85.6,57.3,85.3,57.3,85,57.2"/>
	<path class="st26" d="M94.4,62.8c-0.1,0.6-0.3,1.1-0.5,1.7c0.9,0.3,1.9,0.7,2.8,1.3C96,64.7,95.3,63.8,94.4,62.8"/>
	<path class="st27" d="M89.9,59c1,1.7,1.6,3.3,1.8,5c0.3,0,0.6,0.1,0.9,0.1c0.4,0.1,0.8,0.2,1.2,0.3c0.2-0.6,0.4-1.1,0.5-1.7
		c-0.3-0.3-0.6-0.6-0.9-0.9C92.3,60.7,91.1,59.7,89.9,59"/>
	<path class="st25" d="M103.2,59.2c2.8,3.6,4.4,7.4,4.9,11.2c0.6,4.9-0.7,9.2-4,12.8c-0.1,0.3-0.3,0.5-0.4,0.8
		c-0.4,0.8-0.4,1.3,0,1.7l4.8,4.8c0.3,0.3,0.6,0.4,0.9,0.4c0.3,0,0.6-0.1,0.9-0.4c3.7-3.7,5.3-8.2,4.6-13.4
		c-0.7-5.2-3.4-10.2-8.2-15.1C105.5,61,104.3,60.1,103.2,59.2"/>
	<path class="st22" d="M60.8,77c-0.3,0-0.6,0.1-0.8,0.4c0,0,0,0,0,0.1c-2.1,2.8-3,5.7-2.6,8.7c0,0.1,0,0.3,0.1,0.4
		c0.7,0.2,1.4,0.2,2,0.2c1.9,0,3.6-0.7,5.1-2.2c0.8-0.8,1.4-1.7,1.7-2.7l-4.6-4.6C61.3,77.1,61.1,77,60.8,77"/>
	<path class="st23" d="M66.9,82.8c-0.4,0.5-0.8,0.9-1.3,1.4c-2.3,2.3-4.9,3.8-7.7,4.6c0.3,0.8,0.7,1.7,1.2,2.5c1.5,0.9,3,1.6,4.6,2
		c0.1,0,0.3,0.1,0.4,0.1c0-0.1,0-0.3-0.1-0.4c-0.4-3,0.5-5.9,2.6-8.7C67.1,83.7,67.2,83.2,66.9,82.8"/>
	<path class="st26" d="M66.2,82c-0.4,1-0.9,1.9-1.7,2.7c-1.5,1.5-3.2,2.2-5.1,2.2c-0.6,0-1.3-0.1-2-0.2c0.1,0.7,0.3,1.5,0.6,2.2
		c2.8-0.8,5.4-2.3,7.7-4.6c0.5-0.5,0.9-0.9,1.3-1.4c-0.1-0.1-0.1-0.2-0.2-0.3L66.2,82"/>
	<path class="st26" d="M64.7,95.5c-0.5,0.1-1.1,0.3-1.6,0.3c0.9,0.8,1.8,1.5,2.8,2.1C65.4,97.2,65,96.3,64.7,95.5"/>
	<path class="st27" d="M59.2,91.3c0.8,1.2,1.7,2.5,3,3.7c0.3,0.3,0.7,0.6,1,0.9c0.5-0.1,1.1-0.2,1.6-0.3c-0.3-0.7-0.5-1.4-0.6-2.2
		c-0.1,0-0.3-0.1-0.4-0.1C62.1,92.8,60.6,92.2,59.2,91.3"/>
	<path class="st27" d="M78.1,60.3c-2.2,2.4-3.5,4.9-4.1,7.4c0.6,0.9,1.3,1.9,2,2.9c4,5.6,6.5,10.6,7.4,14.9c0.4,1.7,0.3,3.4,0,5.1
		c0.6,0.9,1.3,2.1,2,3.5c0.9,1.7,1.4,3,1.5,4c0.1,1,0,2.1-0.3,3.3c-0.3,1.2-1,2.3-1.9,3.3c-1.5,1.5-3.2,2.2-5.1,2.2
		c-0.8,0-1.6-0.1-2.4-0.3c-2.6-0.7-5.1-2.1-7.4-4.1c-0.9,0.1-1.8,0.2-2.8,0.2c-0.8,0-1.7-0.1-2.6-0.2c-2.7-0.4-5.3-1.2-7.8-2.4
		c0.7,1.4,1.5,2.7,2.5,4.1c3.8,2.8,7.8,4.5,12.1,5.1c0.9,0.1,1.7,0.2,2.6,0.2c4.6,0,8.6-1.7,12.1-5.2c3.7-3.7,5.1-7.7,4.2-12
		c-0.9-4.3-3.3-9.3-7.4-14.9c-3.4-4.8-5.4-8.6-5.7-11.3C76.7,63.9,77.1,62,78.1,60.3L78.1,60.3 M99.2,56.8c1.1,2.3,1.9,4.6,2.2,6.9
		c0.3,2,0.2,4-0.2,5.8c4.3,4.7,5.3,9.3,3,13.7c3.3-3.6,4.6-7.9,4-12.8c-0.5-3.8-2.1-7.6-4.9-11.2C101.9,58.3,100.5,57.5,99.2,56.8"
		/>
	<path class="st28" d="M60,77.4C60,77.4,60,77.4,60,77.4c-2.5,2.5-4.2,5.3-5,8.4c0.7,0.3,1.3,0.5,2,0.7c0.1,0,0.3,0.1,0.4,0.1
		c0-0.1,0-0.3-0.1-0.4C56.9,83.2,57.8,80.3,60,77.4C59.9,77.5,60,77.5,60,77.4 M84.7,55.5c-2,0.8-3.8,2.1-5.6,3.8
		c-0.3,0.3-0.6,0.7-1,1l0.1,0.1c0.3-0.4,0.6-0.7,0.9-1.1c1.4-1.4,3.1-2.2,5-2.2c0.3,0,0.6,0,0.9,0.1C84.9,56.7,84.8,56.1,84.7,55.5"
		/>
	<path class="st29" d="M58,88.8c-0.5,0.1-1.1,0.3-1.6,0.3c0.9,0.8,1.8,1.5,2.8,2.1C58.7,90.4,58.3,89.6,58,88.8"/>
	<path class="st29" d="M55,85.8c-0.1,0.5-0.3,1-0.3,1.6c0.2,0.3,0.5,0.5,0.8,0.8c0.3,0.3,0.7,0.6,1,0.9c0.5-0.1,1.1-0.2,1.6-0.3
		c-0.3-0.7-0.5-1.4-0.6-2.2c-0.1,0-0.3-0.1-0.4-0.1C56.3,86.3,55.6,86.1,55,85.8"/>
	<path class="st29" d="M87.6,56c-0.1,0.6-0.3,1.1-0.5,1.7c0.9,0.3,1.9,0.7,2.8,1.3C89.3,58,88.5,57,87.6,56"/>
	<path class="st29" d="M86.6,54.9c-0.6,0.2-1.3,0.4-1.9,0.6c0.2,0.6,0.3,1.1,0.3,1.7c0.3,0,0.6,0.1,0.9,0.1c0.4,0.1,0.8,0.2,1.2,0.3
		c0.2-0.6,0.4-1.1,0.5-1.7c-0.3-0.3-0.6-0.6-0.9-0.9C86.7,55.1,86.6,55,86.6,54.9"/>
	<path class="st29" d="M54.9,95.4c0.4,1.6,0.9,3.3,1.7,4.8c2.5,1.3,5.1,2.1,7.8,2.4c0.9,0.1,1.7,0.2,2.6,0.2c1,0,1.9-0.1,2.8-0.2
		c-0.3-0.3-0.7-0.6-1-0.9c-1.2-1.2-2.2-2.4-3-3.7c-1-0.6-1.9-1.3-2.8-2.1c-0.9,0.1-1.8,0.2-2.8,0.2c-0.8,0-1.7-0.1-2.6-0.2
		C56.8,95.8,55.8,95.6,54.9,95.4 M74,67.8c-0.2,1.1-0.4,2.2-0.3,3.3c0,0,0,0,0,0c1.5,2.8,2.4,5.4,3,7.8c0.1,0.7,0.2,1.4,0.3,2.1
		c0.8,1.5,1.8,3,2.9,4.6l3.2,4.7c0.1,0.1,0.2,0.3,0.3,0.4c0.4-1.7,0.4-3.4,0-5.1c-0.9-4.3-3.3-9.3-7.4-14.9
		C75.3,69.7,74.6,68.7,74,67.8"/>
	<path class="st29" d="M94.2,55.1c0.1,0.6,0.3,1.3,0.3,1.9c0.3,2,0.2,4-0.2,5.8c0.9,1,1.7,2,2.3,3c1.2,0.7,2.4,1.7,3.6,2.9
		c0.3,0.3,0.6,0.6,0.9,0.9c0.4-1.8,0.5-3.7,0.2-5.8c-0.3-2.3-1-4.6-2.2-6.9C97.6,56,96,55.5,94.2,55.1"/>
	<path class="st30" d="M56.4,89.1c-0.6,0.1-1.3,0.2-2,0.2c-0.1,0.9-0.1,1.8,0,2.8c0.1,1.1,0.2,2.2,0.5,3.3c0.9,0.2,1.9,0.4,2.8,0.5
		c0.9,0.1,1.7,0.2,2.6,0.2c1,0,1.9-0.1,2.8-0.2c-0.3-0.3-0.7-0.6-1-0.9c-1.2-1.2-2.2-2.4-3-3.7C58.2,90.7,57.3,89.9,56.4,89.1
		 M73.7,71.1c0.1,2.9,1.2,6.2,3.2,9.9c0-0.7-0.1-1.4-0.3-2.1C76.1,76.5,75.2,73.9,73.7,71.1 M90,54.5c-0.7,0-1.4,0-2.1,0.1
		c-0.1,0.5-0.1,0.9-0.2,1.3c0.9,1,1.7,2,2.3,3c1.2,0.7,2.4,1.7,3.6,2.9c0.3,0.3,0.6,0.6,0.9,0.9c0.4-1.8,0.5-3.7,0.2-5.8
		c-0.1-0.6-0.2-1.3-0.3-1.9c-0.5-0.1-1-0.2-1.5-0.3C91.8,54.6,90.9,54.5,90,54.5"/>
	<path class="st30" d="M54.6,87.4c-0.1,0.6-0.2,1.3-0.2,1.9c0.7,0,1.3-0.1,2-0.2c-0.3-0.3-0.7-0.6-1-0.9
		C55.1,87.9,54.9,87.7,54.6,87.4 M87.9,54.7c-0.4,0.1-0.9,0.1-1.3,0.3c0.1,0.1,0.1,0.1,0.2,0.2c0.3,0.3,0.6,0.6,0.9,0.9
		C87.7,55.6,87.8,55.1,87.9,54.7"/>
	<path class="st31" d="M108.8,77.3l4.7-4.7c0.6-0.6,1.1-0.6,1.7,0l7.8,7.8L135.5,68c0.6-0.6,1.1-0.6,1.7,0l5,5
		c0.6,0.6,0.6,1.1,0,1.7l-12.4,12.4l16.6,16.6c0.6,0.6,0.6,1.1,0,1.7l-4.7,4.7c-0.6,0.6-1.1,0.6-1.7,0l-16.6-16.6l-20.2,20.2
		c-7.4,7.4-8.3,14-2.7,19.7c2.7,2.7,5.4,4,8.1,3.8c2.7-0.2,5.8-1.6,9.2-4.2c0.6-0.4,1.1-0.4,1.7,0.2l5,5l0.3,0.3
		c0.1,0.1,0.1,0.2,0.1,0.3c0,0.2,0,0.3-0.1,0.4c-0.1,0.1-0.2,0.3-0.4,0.5c-4.3,4.3-9.2,6.6-14.8,6.9c-5.6,0.3-10.8-2-15.7-6.8
		c-4.9-4.9-7.2-10.2-6.9-15.7c0.4-5.5,3.4-11.2,9.2-16.9l20.3-20.3l-7.8-7.8C108.3,78.4,108.3,77.8,108.8,77.3z"/>
</g>
</svg>
