<?xml version="1.0" encoding="UTF-8"?>
<svg width="281px" height="171px" viewBox="0 0 281 171" version="1.1" xmlns="http://www.w3.org/2000/svg" xmlns:xlink="http://www.w3.org/1999/xlink">
    <!-- Generator: Sketch 49.1 (51147) - http://www.bohemiancoding.com/sketch -->
    <title>Page 1</title>
    <desc>Created with Sketch.</desc>
    <defs>
        <polygon id="path-1" points="0.142207232 0.8858 27.464 0.8858 27.464 35.9978 0.142207232 35.9978"></polygon>
    </defs>
    <g id="Page-1" stroke="none" stroke-width="1" fill="none" fill-rule="evenodd">
        <g id="1280x720-copy" transform="translate(-325.000000, -2654.000000)">
            <g id="Group-6" transform="translate(0.000000, 2458.000000)">
                <g id="Page-1" transform="translate(325.000000, 196.000000)">
                    <path d="M179.996022,145.951586 C180.029837,142.443014 177.861712,139.660079 175.26792,138.186877 C172.656225,136.657857 169.523385,136.011961 166.404468,136 C163.281574,136.011961 160.150723,136.657857 157.539028,138.190864 C156.807037,138.605513 156.116818,139.13778 155.494228,139.747793 C154.86766,139.135786 154.17943,138.605513 153.443461,138.188871 C150.831766,136.659851 147.700915,136.007974 144.583988,136 C141.461093,136.007974 138.336209,136.659851 135.722526,138.188871 C133.132711,139.662072 130.966576,142.441021 131.000391,145.949593 L131.000391,168.314746 C131.000391,169.795922 132.197832,170.998006 133.675737,170.998006 C135.153642,170.998006 136.355061,169.795922 136.355061,168.314746 L136.355061,145.949593 C136.386887,144.615937 136.947814,143.760722 138.447599,142.809819 C139.925504,141.918722 142.248779,141.358546 144.583988,141.364527 C146.917208,141.358546 149.240482,141.918722 150.720376,142.809819 C152.22215,143.760722 152.781089,144.615937 152.814904,145.949593 L152.814904,145.951586 L152.814904,168.314746 L152.814904,168.31674 C152.814904,169.795922 154.012345,171 155.492239,171 C156.972133,171 158.169574,169.795922 158.169574,168.31674 L158.169574,168.314746 L158.169574,145.951586 C158.2014,144.615937 158.762327,143.760722 160.266091,142.811813 C161.742006,141.920715 164.071248,141.354559 166.404468,141.36652 C168.737688,141.354559 171.06693,141.918722 172.546824,142.809819 C174.050587,143.760722 174.607537,144.613943 174.639362,145.951586 L174.639362,168.31674 C174.639362,169.795922 175.838793,171 177.322665,171 C178.80057,171 180,169.795922 180,168.31674 C179.996022,168.314746 179.996022,155.644017 179.996022,145.951586" id="Fill-1" fill="#1D1D1B"></path>
                    <path d="M34.0003869,108.314746 L34.0003869,85.9515863 C33.9668056,82.4410207 36.123906,79.6600786 38.6958334,78.1888705 C41.2875144,76.6598508 44.3967415,76.011961 47.4980671,76 C50.5993927,76.011961 53.7086198,76.6598508 56.3022762,78.1888705 C58.8742036,79.6600786 61.0293286,82.4410207 60.9996981,85.9515863 C60.9996981,87.4307684 59.8065766,88.63684 58.3388792,88.63684 C56.8692064,88.63684 55.6780603,87.4307684 55.6780603,85.9515863 C55.6464545,84.6119496 55.0933518,83.7607222 53.5999746,82.8098194 C52.1303019,81.9187219 49.8171475,81.3585464 47.4980671,81.3665205 C45.180962,81.3585464 42.8717584,81.9187219 41.4001103,82.8098194 C39.9087085,83.7607222 39.3496797,84.6159367 39.3180739,85.9515863 L39.3180739,108.314746 L39.3220246,108.314746 C39.3220246,109.797915 38.1289031,111 36.6592304,111 C35.1895576,111 34.0003869,109.797915 34.0003869,108.314746" id="Fill-3" fill="#1D1D1B"></path>
                    <g id="Group-7" transform="translate(253.000000, 135.000000)">
                        <mask id="mask-2" fill="white">
                            <use xlink:href="#path-1"></use>
                        </mask>
                        <g id="Clip-6"></g>
                        <path d="M22.0766,33.3058 L22.0766,10.8698 C22.0426,9.5278 21.4806,8.6718 19.9726,7.7178 C18.4886,6.8218 16.1486,6.2618 13.8006,6.2678 C11.4546,6.2618 9.1186,6.8218 7.6306,7.7178 C6.1226,8.6718 5.5606,9.5278 5.5286,10.8698 L5.5286,33.3058 C5.5286,34.7918 4.3226,35.9978 2.8326,35.9978 C1.3506,35.9978 0.1426,34.7918 0.1426,33.3058 L0.1426,10.8698 C0.1086,7.3478 2.2866,4.5578 4.8906,3.0818 C7.5186,1.5458 10.6646,0.8958 13.8006,0.8858 C16.9426,0.8958 20.0846,1.5458 22.7106,3.0818 C25.3146,4.5578 27.4966,7.3478 27.4606,10.8698 L27.4606,33.3058 L27.4646,33.3058 C27.4646,34.7918 26.2566,35.9978 24.7706,35.9978 C23.2826,35.9978 22.0766,34.7918 22.0766,33.3058" id="Fill-5" fill="#1D1D1B" mask="url(#mask-2)"></path>
                    </g>
                    <path d="M69.3215793,145.95358 C69.3551705,144.619924 69.9084367,143.764709 71.4022555,142.8158 C72.872363,141.922709 75.1802735,141.36054 77.5020158,141.36652 C79.8178302,141.356553 82.1257407,141.920715 83.5958482,142.811813 C85.0876911,143.762716 85.6429332,144.61793 85.6765244,145.95358 L85.6765244,149.201002 L69.3215793,149.201002 L69.3215793,145.95358 Z M88.3401061,154.569516 C89.0494725,154.569516 89.7153679,154.288432 90.2192354,153.784075 C90.7211269,153.273737 90.999736,152.599932 90.999736,151.88825 L90.999736,145.95358 C91.0273993,142.443014 88.8775648,139.662072 86.3029008,138.190864 C83.7065014,136.659851 80.5983307,136.011961 77.5000398,136 C74.397797,136.013955 71.2896263,136.663838 68.6952029,138.192858 C66.1225149,139.668053 63.9687285,142.445008 64.0003437,145.95358 L64.0003437,161.050407 C63.9687285,164.558979 66.1225149,167.335934 68.6952029,168.807142 C71.2896263,170.340149 74.399773,170.990032 77.5000398,171 L88.3381302,171 C89.8062617,171 90.999736,169.797915 90.999736,168.31674 C90.999736,166.833571 89.8062617,165.63348 88.3381302,165.63348 L77.5000398,165.63348 C75.1802735,165.643447 72.870387,165.081278 71.4022555,164.188187 C69.9123886,163.237284 69.3551705,162.384063 69.3196034,161.050407 L69.3196034,154.569516 L88.3401061,154.569516 Z" id="Fill-8" fill="#1D1D1B"></path>
                    <path d="M5.32241063,85.9544393 C5.35205452,84.6209351 5.91133593,83.7658181 7.39945926,82.8190102 C8.87177251,81.9260208 11.1800435,81.3639159 13.500172,81.3698958 C15.8203006,81.3599294 18.1265953,81.9220343 19.5989085,82.8130304 C21.0909844,83.7638248 21.644337,84.6189419 21.6779334,85.9544393 L21.6779334,89.2034854 L5.32241063,89.2034854 L5.32241063,85.9544393 Z M24.3399548,105.634091 L13.500172,105.632097 C11.1800435,105.642064 8.87177251,105.079959 7.40143552,104.18697 C5.91133593,103.236175 5.35205452,102.385045 5.32241063,101.047554 L5.32241063,94.5693946 L24.3399548,94.5693946 C25.049432,94.5693946 25.7174076,94.2903354 26.2193775,93.7840424 C26.7213474,93.2777493 26.9980237,92.6020275 26.9980237,91.88644 L26.9980237,85.9544393 C27.0335964,82.4462669 24.8794737,79.6636483 22.3083602,78.1926078 C19.7115553,76.6617689 16.5989468,76.0119597 13.500172,76 C10.3954685,76.0159462 7.28878873,76.6637622 4.6959364,78.1965943 C2.12284665,79.6676348 -0.031276093,82.4462669 0.00232031679,85.9544393 L0.00232031679,91.88644 L0.00232031679,91.8884333 L0.000344057389,91.8884333 L0.000344057389,101.047554 C-0.031276093,104.555726 2.1208704,107.336352 4.6959364,108.807392 C7.29076499,110.338231 10.3954685,110.990034 13.500172,111 L24.3399548,111 C25.8083156,111 27,109.796059 27,108.317045 C27,106.834045 25.8083156,105.634091 24.3399548,105.634091 Z" id="Fill-10" fill="#1D1D1B"></path>
                    <path d="M120.301487,138.714319 C117.707418,137.207915 114.597696,136.572401 111.499828,136.560632 C108.641018,136.574363 105.782207,137.125534 103.320509,138.388716 L103.320509,122.642091 C103.320509,121.182762 102.127198,120 100.661242,120 C99.18936,120 98,121.182762 98,122.642091 L98,168.357909 C98,169.815276 99.18936,170.998039 100.661242,170.998039 C102.127198,170.998039 103.320509,169.815276 103.320509,168.357909 L103.320509,146.352256 C103.35212,145.041998 103.905311,144.200531 105.398925,143.268836 C106.870808,142.388139 109.178403,141.833045 111.499828,141.840891 C113.817302,141.831083 116.126873,142.386177 117.598756,143.26099 C119.09237,144.198569 119.645561,145.040037 119.681123,146.352256 L119.681123,168.357909 C119.681123,169.815276 120.872459,171 122.34039,171 C123.808321,171 124.999657,169.815276 124.999657,168.357909 L124.999657,146.352256 C125.031268,142.900081 122.8758,140.161878 120.301487,138.714319" id="Fill-12" fill="#1D1D1B"></path>
                    <path d="M241.681156,168.314746 L241.681156,145.951586 C241.649545,144.613943 241.092411,143.760722 239.600794,142.809819 C238.128932,141.918722 235.815443,141.358546 233.496027,141.364527 C231.180562,141.358546 228.871024,141.918722 227.399163,142.809819 C225.909521,143.760722 225.354362,144.615937 225.322752,145.951586 L225.322752,168.314746 C225.322752,169.795922 224.129458,171 222.663523,171 C221.193638,171 220.000344,169.795922 220.000344,168.314746 L220.000344,145.951586 C219.968733,142.441021 222.122195,139.660079 224.692519,138.190864 C227.288526,136.659851 230.400179,136.007974 233.496027,136 C236.601753,136.007974 239.707479,136.659851 242.303486,138.186877 C244.877762,139.660079 247.033199,142.441021 246.999613,145.951586 L246.999613,168.314746 C246.999613,169.795922 245.81027,171 244.34236,171 C242.872474,171 241.681156,169.795922 241.681156,168.314746" id="Fill-14" fill="#1D1D1B"></path>
                    <path d="M26.9936861,160.716084 C27.0292476,157.25954 24.8738256,154.482743 22.2995681,153.011619 C19.7055542,151.478699 16.6018255,150.830846 13.5040237,150.816893 C11.1865993,150.82686 8.87707738,150.262729 7.4052264,149.371682 C5.91559466,148.422827 5.35648885,147.565668 5.32685427,146.232088 L5.31697607,145.875271 C5.35056193,144.619433 5.90374083,143.76626 7.40127512,142.815412 C8.86719919,141.926358 11.1727698,141.362228 13.4921699,141.366215 L13.5000724,141.366215 C15.0904617,141.364221 17.1233942,141.629343 18.8520782,142.125698 C20.5807623,142.592152 21.977539,143.405456 22.3193245,143.867923 C22.8448444,144.479895 23.585709,144.792858 24.3305249,144.792858 C24.9488999,144.792858 25.5692505,144.575578 26.0750141,144.137032 C27.1813718,143.164256 27.3018858,141.469871 26.3397497,140.347591 C24.7217014,138.533603 22.5583768,137.634583 20.2982459,136.960816 C18.0302124,136.31695 15.6317868,136.00598 13.5059993,136 C13.4961211,136 13.4882186,136.003987 13.4783404,136.003987 C10.3864655,136.017941 7.28273678,136.66978 4.69662546,138.192733 C2.12236796,139.667844 -0.0350297222,142.444641 0.000531778108,145.953013 L0.00843433373,146.307837 C-0.0271271666,149.738467 2.12631924,152.51925 4.70057673,153.990375 C7.29459062,155.523294 10.4022706,156.17314 13.5040237,156.185101 C15.8155212,156.175134 18.1230675,156.737271 19.5968941,157.632304 C21.0865258,158.58116 21.6416804,159.436325 21.6732906,160.767912 L21.6792175,161.096822 C21.6476073,162.380567 21.0904771,163.235733 19.5988697,164.184588 C18.13097,165.077628 15.8194725,165.639765 13.5119263,165.625812 L13.5040237,165.631792 C11.9096831,165.635779 9.87675067,165.374644 8.1520179,164.878289 C6.41740694,164.409842 5.0186546,163.596537 4.6630396,163.124103 C3.69497653,162.005809 2.01370782,161.896173 0.909325675,162.870942 C-0.197032112,163.845711 -0.30964353,165.540096 0.658419534,166.656396 L0.658419534,166.654403 C2.27844344,168.466397 4.4397924,169.367411 6.70387459,170.041178 C8.97585933,170.687037 11.3762606,170.99402 13.5040237,171 L13.5119263,170.99402 C16.6077524,170.984053 19.7114811,170.338193 22.305495,168.805274 C24.8758012,167.33415 27.0331989,164.555359 26.9996131,161.046987 L26.9936861,160.716084 Z" id="Fill-16" fill="#1D1D1B"></path>
                    <path d="M207.683168,165.633196 L197.309088,165.633174 C194.971908,165.637161 193.444739,165.092903 192.634727,164.417065 C191.84052,163.729266 191.368342,162.895933 191.330805,161.047847 L191.330805,159.153907 C191.366367,157.822169 191.919546,156.970893 193.411153,156.017943 C194.869174,155.132775 197.153013,154.570574 199.454632,154.570574 L207.683168,154.570574 L207.683168,165.633196 Z M208.30747,138.187002 C205.71148,136.659888 202.605776,136.009968 199.502047,136 L199.500072,136 C197.372309,136.005981 194.971908,136.314992 192.70585,136.960925 C190.439792,137.634769 188.28437,138.531898 186.658419,140.342105 C185.690356,141.458533 185.802968,143.155104 186.909326,144.12799 C187.413114,144.572568 188.039391,144.791866 188.659742,144.791866 C189.398631,144.791866 190.137519,144.480861 190.663039,143.872807 C191.012727,143.4063 192.417407,142.590909 194.152017,142.124402 C195.870823,141.62799 197.893877,141.36882 199.482291,141.366826 C199.490194,141.366826 199.49612,141.36882 199.502047,141.36882 C201.823423,141.356858 204.132945,141.917065 205.60282,142.810207 C207.090476,143.761164 207.647606,144.61244 207.683168,145.952153 L207.683168,149.201754 L199.502047,149.201754 C196.400294,149.21571 193.29459,149.867624 190.702552,151.39673 C188.132246,152.870016 185.980775,155.647129 186.012386,159.153907 L186.012386,161.047847 C185.9788,164.046252 187.112816,166.845295 189.284043,168.585726 C191.439465,170.330144 194.225116,170.996013 197.309088,171 L210.340402,171 C211.051632,171 211.719398,170.722887 212.22121,170.216507 C212.723022,169.708134 212.999612,169.03429 212.999612,168.318581 L212.999612,145.952153 C213.033198,142.443381 210.883703,139.662281 208.30747,138.187002 Z" id="Fill-18" fill="#1D1D1B"></path>
                    <path d="M135,49.3168926 L135,19.6831074 C135,18.2020162 136.120401,17 137.500929,17 C138.883315,17 140,18.2020162 140,19.6831074 L140,49.3168926 C140,50.7979838 138.883315,52 137.500929,52 C136.120401,52 135,50.7979838 135,49.3168926" id="Fill-20" fill="#1D1D1B"></path>
                    <path d="M67,108.314746 L67,91.8842627 L67,78.6832602 L67.0018567,78.6832602 C67.0018567,77.2000911 68.1195693,76 69.5009283,76 C70.8822874,76 72,77.2000911 72,78.6832602 L72,91.8842627 L72,108.314746 C72,109.797915 70.8822874,111 69.5009283,111 C68.1195693,111 67,109.797915 67,108.314746" id="Fill-22" fill="#1D1D1B"></path>
                    <path d="M22.2998556,34.0086565 C19.7079292,32.4818042 16.6003833,31.831995 13.5007396,31.8160487 C11.1834152,31.8280084 8.87794408,31.2659035 7.41010772,30.3729142 C5.92054026,29.4221197 5.36145858,28.5709892 5.33182527,27.2334985 L5.33182527,27.1796799 L5.31997195,26.9325132 C5.35553192,25.6169486 5.91856471,24.7658181 7.40022995,23.8150236 C8.87399297,22.9240276 11.1853907,22.3619227 13.4987641,22.3698958 C15.0890848,22.3698958 17.1219295,22.6310154 18.8465878,23.1293354 C20.5791484,23.5937696 21.9758648,24.409021 22.3215867,24.8714619 C22.8451084,25.4814055 23.585941,25.7943505 24.3287492,25.7943505 C24.9470975,25.7943505 25.5674213,25.577083 26.0711875,25.1365681 C27.1814487,24.1618543 27.2999819,22.4675665 26.3339362,21.3493365 C24.7159577,19.5334586 22.5566776,18.638476 20.2926931,17.9627541 C18.0267331,17.3189248 15.6264354,17.0099664 13.5027152,17 C13.4790085,17 13.4553019,17.0039866 13.4315953,17.0039866 C10.3576338,17.0239194 7.27181896,17.6757219 4.695697,19.1965943 C2.12550169,20.6676348 -0.0298273454,23.4462669 0.0017815131,26.9544393 L0.0017815131,27.0062646 L0.00968372772,27.251438 C-0.0120473625,30.7496441 2.13340391,33.5242895 4.70162366,34.9933368 C7.29355005,36.5241756 10.4010959,37.1719916 13.4987641,37.1839513 C15.814113,37.1759781 18.1235352,37.738083 19.5972982,38.6330657 C21.0927923,39.5818668 21.6459473,40.4389772 21.6795318,41.7704881 L21.6795318,42.047554 C21.6459473,43.3810581 21.0927923,44.2341819 19.5992738,45.1849764 C18.1294618,46.0759724 15.8239907,46.6380773 13.5086418,46.6301042 L13.4987641,46.6320975 C11.9064678,46.6360841 9.87362312,46.3749644 8.14896478,45.8786377 C6.41640423,45.410217 5.01573669,44.5969588 4.66606369,44.1285381 C3.70001795,43.0103081 2.01684624,42.8946979 0.912511748,43.8674184 C-0.195773852,44.840139 -0.310355964,46.5364201 0.655689773,47.65465 L0.655689773,47.6506635 C2.27366822,49.4685347 4.43689947,50.3675038 6.70088395,51.0412324 C8.9707951,51.6870551 11.3710928,51.9960134 13.4987641,52 L13.5086418,51.9980067 C16.6043344,51.986047 19.7118803,51.3382311 22.3057823,49.8073922 C24.8759776,48.3343584 27.0293311,45.5537331 26.9996977,42.047554 L26.9996977,41.7704881 C27.0293311,38.2603223 24.8720265,35.4816903 22.2998556,34.0086565" id="Fill-24" fill="#1D1D1B"></path>
                    <path d="M56.2910373,21.6408918 C57.7854985,21.6408918 59,20.4477212 59,18.9819388 C59,17.5122054 57.7854985,16.3229857 56.2910373,16.3229857 L46.4561934,16.3229857 L46.4561934,11.6609285 C46.4561934,10.1911951 45.2416918,9 43.7452165,9 C42.2487412,9 41.0342397,10.1911951 41.0342397,11.6609285 L41.0342397,16.3229857 L35.7069486,16.3229857 C34.2124874,16.3229857 33,17.5122054 33,18.9819388 C33,20.4477212 34.2124874,21.6408918 35.7069486,21.6408918 L41.0342397,21.6408918 L41.0342397,41.1247354 C41.0342397,41.1286863 41.0342397,41.1346127 41.0342397,41.1385636 C41,44.6133766 43.1953676,47.371102 45.8136959,48.8289826 C48.4582075,50.3441513 51.6263847,50.9901228 54.7824773,51 C56.2789527,51 57.4934542,49.8088049 57.4934542,48.3430224 C57.4934542,46.8713137 56.2789527,45.6840694 54.7824773,45.6840694 C52.4239678,45.6919712 50.0735146,45.1329194 48.5730111,44.2479187 C47.0563948,43.3076055 46.4884189,42.4621137 46.4561934,41.1385636 L46.4561934,21.6408918 L56.2910373,21.6408918 Z" id="Fill-26" fill="#1D1D1B"></path>
                    <path d="M69.6937735,49.8090112 C67.1218462,48.3377193 64.970672,45.5586124 65.0003025,42.0478469 L65.0003025,19.6834131 C65.0003025,18.2021531 66.1934239,17 67.6630967,17 C69.1288187,17 70.3219401,18.2021531 70.3219401,19.6834131 L70.3219401,42.0478469 C70.3515706,43.3835726 70.908624,44.2388357 72.4000258,45.1858054 C73.8696985,46.0769537 76.1789021,46.6411483 78.4999578,46.6331738 C80.8170628,46.6411483 83.1262664,46.0769537 84.5998899,45.1858054 C86.093267,44.2388357 86.648345,43.3835726 86.6799509,42.0478469 L86.6799509,27.2352472 L86.6799509,19.6834131 C86.6799509,18.2021531 87.8710969,17 89.3407697,17 C90.8064917,17 91.9996131,18.2021531 91.9996131,19.6834131 L91.9996131,42.0478469 C92.0331944,45.5586124 89.876094,48.3377193 87.3041667,49.8090112 C84.7065596,51.3421053 81.5953573,51.9900319 78.4999578,52 C75.3986323,51.9900319 72.2874299,51.3421053 69.6937735,49.8090112" id="Fill-28" fill="#1D1D1B"></path>
                    <path d="M119.600629,44.2976809 C118.127076,45.1744548 115.817982,45.7295489 113.499012,45.721703 C111.178067,45.7295489 108.868974,45.1744548 107.399371,44.3016038 C105.910015,43.3659859 105.356939,42.5264798 105.323359,41.2103381 C105.323359,31.7678551 105.315458,26.4719049 105.315458,26.3601015 C105.315458,26.3581401 105.319409,26.3581401 105.319409,26.3542171 C105.352989,25.0380755 105.906065,24.1985693 107.397396,23.2629514 C108.868974,22.384216 111.178067,21.8310834 113.500988,21.8428522 C115.817982,21.8310834 118.129051,22.384216 119.600629,23.2629514 C121.09196,24.1985693 121.645036,25.0380755 121.678616,26.3542171 C121.678616,26.3581401 121.680591,26.3640245 121.680591,26.3679474 L121.680591,41.2103381 C121.648987,42.5245183 121.09196,43.3659859 119.600629,44.2976809 M127,26.3542171 C127,26.3463713 126.998025,26.336564 126.998025,26.3247952 L126.998025,2.63816776 C126.998025,1.18472366 125.806935,0 124.339308,0 C122.86773,0 121.680591,1.18472366 121.680591,2.63816776 L121.680591,18.3867544 C119.217426,17.1216107 116.357232,16.5684781 113.500988,16.5606323 C110.397835,16.5704396 107.288756,17.2079151 104.693247,18.7143187 C102.125393,20.1599169 99.9762967,22.8902735 100.001975,26.3385254 C100.001975,26.3463713 100,26.3502942 100,26.3561786 C100,26.3699088 100.003951,31.6697819 100.003951,41.2103381 C99.9703709,44.6605515 102.125393,47.3987539 104.697198,48.8463136 C107.288756,50.3527172 110.397835,50.9921541 113.499012,51 C116.598215,50.9921541 119.707294,50.3527172 122.302802,48.8463136 C124.874607,47.3987539 127.031604,44.6644744 126.998025,41.2103381 L126.998025,26.3738318 C126.998025,26.3679474 127,26.3601015 127,26.3542171" id="Fill-30" fill="#1D1D1B"></path>
                    <path d="M171.682314,42.0509739 C171.648736,43.384554 171.093698,44.2417132 169.60043,45.188575 C168.13284,46.0796218 165.819855,46.6437521 163.500945,46.6337852 C161.185984,46.6437521 158.87695,46.0796218 157.403434,45.1925618 C155.918067,44.2417132 155.361055,43.384554 155.327476,42.0509739 C155.327476,32.416904 155.32155,27.024775 155.32155,26.9530129 C155.351178,25.615446 155.910166,24.7622736 157.401459,23.811425 C158.871024,22.9183848 161.182034,22.3562479 163.500945,22.3682082 C165.819855,22.3562479 168.13284,22.9183848 169.60043,23.811425 C171.093698,24.7622736 171.648736,25.615446 171.682314,26.9530129 L171.682314,42.0509739 Z M176.999612,26.9530129 C177.033191,23.4426472 174.882174,20.6618635 172.306485,19.1867525 C169.711043,17.6578198 166.600068,17.0079736 163.500945,17 C160.401821,17.0079736 157.292822,17.6578198 154.699355,19.1867525 C152.125641,20.6618635 149.970674,23.4426472 150.000302,26.9530129 L150.000302,26.9589931 C150.000302,27.0287618 150.008203,32.4049436 150.008203,42.0509739 C149.974624,45.5593462 152.131567,48.3381365 154.70133,49.8112541 C157.294797,51.3421802 160.401821,51.990033 163.500945,52 C166.602043,51.990033 169.709068,51.3421802 172.306485,49.8112541 C174.878224,48.3381365 177.033191,45.5593462 176.999612,42.0509739 L176.999612,26.9589931 L176.999612,26.9530129 Z" id="Fill-32" fill="#1D1D1B"></path>
                    <path d="M106.841511,92.6355517 C106.471127,92.0924002 106.100742,91.6085015 105.726396,91.1522542 C106.12451,90.8658652 106.516682,90.5656505 106.89895,90.2200086 C109.196523,88.1994848 111.525786,85.2230142 114.550263,80.7099184 C115.368278,79.4893087 115.035526,77.840103 113.811474,77.0243881 C112.583461,76.2086733 110.929606,76.5404895 110.113571,77.7610992 C107.211896,82.1082868 105.035144,84.7924431 103.38723,86.2184629 C101.705645,87.6346071 100.8599,87.857793 99.6398101,87.897295 C99.6338681,87.897295 99.6259455,87.8953199 99.6180228,87.8953199 L87.3319525,87.8953199 L87.3319525,67.6604551 C87.3319525,66.1909833 86.137611,65 84.6679569,65 C83.1943415,65 82,66.1909833 82,67.6604551 L82,108.34152 C82,109.809017 83.1943415,111 84.6679569,111 C86.137611,111 87.3319525,109.809017 87.3319525,108.34152 L87.3319525,93.2162301 L99.6180228,93.2162301 C100.103286,93.2359811 100.206281,93.2656076 100.606375,93.520395 C101.917576,94.2393302 104.609301,98.9440103 109.972944,109.281666 C110.450284,110.184285 111.375255,110.699785 112.331917,110.699785 C112.753799,110.699785 113.179642,110.599055 113.575775,110.39167 C114.877073,109.708287 115.380162,108.102533 114.69089,106.80292 C111.046465,99.9137827 108.816235,95.5507943 106.841511,92.6355517" id="Fill-34" fill="#1D1D1B"></path>
                    <path d="M67,68.1760648 L67,66.8260348 C67,66.0827834 67.2674591,65.3521296 67.7336553,64.8272346 C68.1998514,64.30024 68.8406389,64 69.5,64 C70.1593611,64 70.8038633,64.30024 71.2700594,64.8272346 C71.7362556,65.3521296 72,66.0827834 72,66.8260348 L72,68.1760648 C72,69.7339532 70.8818722,71 69.5,71 C68.1199851,71 67,69.7339532 67,68.1760648" id="Fill-36" fill="#1D1D1B"></path>
                    <path d="M135,8.17521752 L135,6.82688269 C135,6.08130813 135.267459,5.35253525 135.731798,4.82538254 C136.197994,4.29822982 136.842496,4 137.5,4 C138.157504,4 138.802006,4.29822982 139.268202,4.82538254 C139.734398,5.35253525 140,6.08130813 140,6.82688269 L140,8.17521752 C140,9.73567357 138.880015,11 137.5,11 C136.119985,11 135,9.73567357 135,8.17521752" id="Fill-38" fill="#1D1D1B"></path>
                    <path d="M45.4549396,141.642273 L55.2925054,141.642273 C56.7861567,141.642273 58,140.453109 58,138.983445 C58,137.515756 56.7861567,136.324617 55.2925054,136.324617 L45.4549396,136.324617 L45.4549396,131.660803 C45.4549396,130.193114 44.2431093,129 42.743419,129 C41.2477547,129 40.0339114,130.193114 40.0339114,131.660803 L40.0339114,136.324617 L34.7135336,136.324617 C33.2138433,136.324617 32,137.515756 32,138.983445 C32,140.453109 33.2138433,141.642273 34.7135336,141.642273 L40.0339114,141.642273 L40.0339114,161.139027 L40.0339114,161.141003 C39.9996903,164.615652 42.1938681,167.369297 44.8168164,168.829085 C47.4598947,170.346157 50.6283679,170.986173 53.7887891,171 C55.2824404,171 56.4942707,169.808861 56.4942707,168.341172 C56.4942707,166.871508 55.2824404,165.682344 53.7887891,165.682344 C51.4255187,165.690246 49.0723134,165.135171 47.5766491,164.250212 C46.0588417,163.309943 45.4931867,162.466466 45.4549396,161.144953 L45.4549396,161.139027 L45.4549396,141.642273 Z" id="Fill-40" fill="#1D1D1B"></path>
                </g>
            </g>
        </g>
    </g>
</svg>